<svg width="173" height="28" viewBox="0 0 173 28" fill="none" xmlns="http://www.w3.org/2000/svg">
<path d="M18.562 2.15807L19.4325 2.24484C19.9829 2.59564 18.8064 3.91863 18.5191 4.21533C17.4303 5.33772 15.568 6.43679 14.1657 7.13934C13.5266 7.45936 11.641 8.10499 11.2575 8.40448C11.167 8.47539 10.624 9.45411 10.4001 9.71721C9.6416 10.6054 8.54719 11.3593 7.36695 11.488C7.63005 10.9114 7.965 10.36 8.22531 9.78159C8.25889 9.70695 8.38578 9.58566 8.25423 9.53061C6.83514 10.2546 5.05871 11.0803 4.56423 12.7439C4.09773 14.3132 6.1158 13.8411 7.0404 13.9157C8.57611 14.0407 10.1118 14.3551 11.5664 14.8487C11.6401 14.9429 10.1053 15.6361 9.95042 15.7033C8.8756 16.1736 7.75694 16.5533 6.64481 16.9227L6.29587 22.0309C3.9979 19.9093 3.12927 17.2502 3.35319 14.1443C3.6984 9.34681 8.1376 8.59295 11.8453 7.14867L12.5927 6.73162C11.5962 6.53009 10.736 5.70439 10.6343 4.67716C8.28968 5.111 6.00944 6.44519 4.52317 8.31585C4.51571 7.86055 4.99433 7.21025 5.27797 6.83145C6.02716 5.83128 7.19155 5.01024 8.29995 4.44204C9.0874 4.03899 10.4244 3.73017 11.0402 3.35697C11.362 3.16291 11.543 2.7048 11.8006 2.43797C11.7782 2.83356 11.5272 3.20022 11.4843 3.61354C11.3788 4.62771 11.9834 5.6876 13.0358 5.86766C14.6779 6.14756 16.9012 4.51668 17.9117 3.32338L16.4198 3.41761C17.0561 2.71693 17.6495 1.96494 18.0983 1.1327C14.5613 0.697927 10.6791 1.61506 7.5862 3.3551C3.66668 5.55977 1.87439 9.23019 2.423 13.7272L2.02647 12.7728C1.3939 10.4832 1.68126 8.48472 2.81579 6.42186C2.99959 6.08692 3.59857 5.45621 3.5314 5.12033C3.41291 4.52601 2.04887 3.51371 1.52079 3.20302L0 2.43983C0.451571 2.30082 0.873289 2.08343 1.32766 1.94814C2.84751 1.49284 4.61647 1.3361 6.19137 1.51803C6.74557 1.58241 7.78027 1.93042 8.24676 1.87723C8.82522 1.81099 10.5569 0.987155 11.3424 0.766968C13.3549 0.201572 15.7714 -0.183756 17.8548 0.117602C19.5463 0.36298 19.5967 0.840675 18.5657 2.15807H18.562Z" fill="#0671ef"/>
<path d="M15.6482 1.80727C16.2575 2.42118 15.1789 3.5809 14.6387 2.67869C14.1909 1.93042 15.2032 1.3585 15.6482 1.80727Z" fill="#0671ef"/>
<path d="M29.8494 12.1897C32.2659 18.0955 28.7167 24.3037 23.1551 26.666C17.5926 29.0284 10.7733 27.1689 6.82303 22.7325C6.73999 22.6392 6.15501 21.9572 6.21938 21.8919C9.8898 24.6694 15.303 24.745 18.9828 21.9311C21.013 20.3786 22.6644 17.2885 21.1194 14.8627C20.2405 13.4828 18.0181 12.8474 16.7968 14.1452C16.0952 14.8907 16.6606 15.8713 15.8554 16.2818C14.955 16.7408 14.0631 15.9291 13.8158 15.081C13.0937 12.602 14.8309 10.0419 16.9106 8.84766C21.3339 6.30711 26.4682 8.75623 28.7009 12.9659L29.3372 14.427C29.0694 11.6812 27.3089 9.2843 24.926 7.97438L22.8127 7.15147C25.9103 7.13188 28.7083 9.4 29.8494 12.1906V12.1897ZM22.0579 22.7689C25.691 19.9559 26.401 14.26 22.2464 11.5897L20.2964 10.6969C23.4462 10.1623 26.1846 12.2102 26.8685 15.2676C27.9638 20.1631 24.1572 24.7151 19.621 26.0223L18.3381 26.3703C24.0032 25.9243 28.8763 20.6081 27.8052 14.7974C26.959 10.2108 21.9012 7.21492 17.5908 9.43545C15.8367 10.3395 13.9036 12.8297 14.6583 14.8926C14.8683 15.4654 15.5391 15.7099 15.5363 15.2303C15.5344 14.8543 15.4187 14.914 15.5904 14.4298C16.8052 11.0029 23.1925 11.6793 24.1656 15.8265C24.8541 18.7617 23.38 21.4245 21.2285 23.2905C21.5271 23.2177 21.8172 22.9555 22.0579 22.7689Z" fill="#0671ef"/>
<path d="M40.0043 16.3523C40.7507 17.1969 41.5167 17.8549 42.3024 18.3263C43.0881 18.7781 43.9524 19.004 44.8952 19.004C45.5041 19.004 46.0247 18.9156 46.4568 18.7388C46.9086 18.5424 47.2523 18.2576 47.488 17.8844C47.7434 17.5112 47.871 17.0594 47.871 16.5291C47.871 16.038 47.7532 15.6353 47.5175 15.3211C47.3014 14.9871 46.9478 14.7121 46.4568 14.4961C45.9854 14.28 45.3568 14.0836 44.5711 13.9068C43.4122 13.6318 42.3908 13.2979 41.5069 12.905C40.6426 12.4925 39.9159 12.0113 39.3266 11.4613C38.757 10.8917 38.3248 10.2631 38.0302 9.57566C37.7552 8.88818 37.6177 8.13194 37.6177 7.30696C37.6177 5.99092 37.9025 4.85167 38.4722 3.88919C39.0614 2.92671 39.8962 2.19012 40.9766 1.67942C42.0569 1.14908 43.3336 0.883908 44.8068 0.883908C46.5943 0.883908 48.1362 1.22765 49.4326 1.91513C50.7486 2.60261 51.8093 3.44724 52.6147 4.449L49.8451 7.21857C49.079 6.35431 48.313 5.69629 47.5469 5.24451C46.7809 4.79274 45.9952 4.56685 45.1898 4.56685C44.6202 4.56685 44.1292 4.67489 43.7167 4.89095C43.3238 5.08738 43.0194 5.38201 42.8033 5.77486C42.5872 6.16771 42.4792 6.61948 42.4792 7.13018C42.4792 7.64088 42.5971 8.07302 42.8328 8.42658C43.0685 8.78014 43.4711 9.10424 44.0408 9.39888C44.63 9.67387 45.4354 9.93904 46.4568 10.1944C47.5568 10.489 48.4898 10.8229 49.2558 11.1962C50.0415 11.5694 50.6897 12.0015 51.2004 12.4925C51.7111 12.9836 52.0941 13.5336 52.3495 14.1425C52.6048 14.7514 52.7325 15.4389 52.7325 16.205C52.7325 17.5996 52.4182 18.7781 51.7897 19.7406C51.1808 20.7031 50.3165 21.4397 49.1969 21.9504C48.0773 22.4414 46.7514 22.6869 45.2193 22.6869C43.3533 22.6869 41.7524 22.3432 40.4168 21.6557C39.1007 20.9682 38.04 20.1236 37.2347 19.1219L40.0043 16.3523Z" fill="#0671ef"/>
<path d="M54.6067 7.36589H59.4682V22.0977H54.6067V7.36589ZM63.9761 14.0247C63.9761 12.7479 63.819 11.8247 63.5047 11.2551C63.21 10.6658 62.7386 10.3712 62.0904 10.3712C61.1672 10.3712 60.4994 10.8721 60.0869 11.8738C59.6744 12.8559 59.4682 14.1327 59.4682 15.7041L59.0851 13.8479L59.0262 11.6086C59.2619 10.5872 59.6351 9.72298 60.1458 9.01585C60.6565 8.28908 61.2654 7.7391 61.9726 7.36589C62.6993 6.97304 63.5047 6.77662 64.3886 6.77662C65.7439 6.77662 66.8242 7.26768 67.6296 8.2498C68.4349 9.23192 68.8376 10.7837 68.8376 12.905V22.0977H63.9761V14.0247ZM73.316 14.0247C73.316 12.7479 73.1589 11.8247 72.8446 11.2551C72.55 10.6658 72.0786 10.3712 71.4304 10.3712C70.5072 10.3712 69.8393 10.8721 69.4268 11.8738C69.034 12.8559 68.8376 14.1327 68.8376 15.7041L68.4251 13.8479L68.3662 11.6086C68.6019 10.5872 68.9751 9.72298 69.4858 9.01585C69.9965 8.28908 70.6054 7.7391 71.3125 7.36589C72.0393 6.97304 72.8446 6.77662 73.7285 6.77662C75.0839 6.77662 76.1642 7.26768 76.9695 8.2498C77.7749 9.23192 78.1775 10.7837 78.1775 12.905V22.0977H73.316V14.0247Z" fill="#0671ef"/>
<path d="M85.5262 22.6869C84.2887 22.6869 83.2084 22.353 82.2852 21.6852C81.362 20.9977 80.645 20.0549 80.1343 18.8567C79.6236 17.6389 79.3683 16.2344 79.3683 14.6434C79.3683 13.1702 79.5942 11.8444 80.0459 10.6658C80.5173 9.46762 81.195 8.52479 82.0789 7.83731C82.9628 7.13018 84.0628 6.77662 85.3788 6.77662C87.1467 6.77662 88.4725 7.43464 89.3564 8.75068C90.26 10.0471 90.7117 11.9818 90.7117 14.555C90.7117 17.1282 90.2698 19.1317 89.3859 20.5656C88.5216 21.9798 87.235 22.6869 85.5262 22.6869ZM87.0288 19.1513C87.6181 19.1513 88.1189 18.9647 88.5314 18.5915C88.9439 18.2183 89.2582 17.6978 89.4743 17.0299C89.71 16.3425 89.8278 15.5568 89.8278 14.6729C89.8278 13.7693 89.71 12.9934 89.4743 12.3452C89.2582 11.697 88.9341 11.1962 88.502 10.8426C88.0698 10.489 87.5591 10.3122 86.9699 10.3122C86.1252 10.3122 85.4574 10.6953 84.9663 11.4613C84.4753 12.2274 84.2298 13.2881 84.2298 14.6434C84.2298 16.038 84.4753 17.138 84.9663 17.9433C85.4771 18.7486 86.1645 19.1513 87.0288 19.1513ZM89.8278 22.0977V7.36589H94.6893V22.0977H89.8278Z" fill="#0671ef"/>
<path d="M96.9787 7.36589H101.84V10.3417C102.194 9.61494 102.587 8.98639 103.019 8.45604C103.451 7.9257 103.981 7.51321 104.61 7.21857C105.258 6.92394 106.054 6.77662 106.996 6.77662V10.3712C106.073 10.3712 105.278 10.5087 104.61 10.7837C103.962 11.0587 103.431 11.4515 103.019 11.9622C102.626 12.4729 102.331 13.0916 102.135 13.8184C101.938 14.5255 101.84 15.3309 101.84 16.2344V22.0977H96.9787V7.36589Z" fill="#0671ef"/>
<path d="M117.755 21.8325C117.028 22.1271 116.351 22.3432 115.722 22.4807C115.113 22.6182 114.475 22.6869 113.807 22.6869C112.196 22.6869 111.028 22.3236 110.301 21.5968C109.574 20.87 109.211 19.7308 109.211 18.179V3.8008H114.072V16.4407C114.072 17.4228 114.161 18.1004 114.337 18.4737C114.514 18.8272 114.799 19.004 115.192 19.004C115.408 19.004 115.683 18.9647 116.017 18.8861C116.351 18.8076 116.645 18.7094 116.901 18.5915L117.755 21.8325ZM106.736 7.36589H117.608V10.7542H106.736V7.36589Z" fill="#0671ef"/>
<path d="M124.782 1.47318H136.597V3.83026H127.434V10.6069H135.418V12.964H127.434V22.0977H124.782V1.47318Z" fill="#0671ef"/>
<path d="M139.418 7.36589H142.07V22.0977H139.418V7.36589ZM139.212 3.06421C139.212 2.8285 139.271 2.60261 139.389 2.38655C139.507 2.15084 139.684 1.96424 139.919 1.82674C140.155 1.6696 140.44 1.59103 140.774 1.59103C141.284 1.59103 141.668 1.74817 141.923 2.06245C142.178 2.35709 142.306 2.69101 142.306 3.06421C142.306 3.43742 142.178 3.79098 141.923 4.1249C141.668 4.43918 141.284 4.59632 140.774 4.59632C140.44 4.59632 140.155 4.51775 139.919 4.36061C139.684 4.20347 139.507 4.00705 139.389 3.77134C139.271 3.53563 139.212 3.29992 139.212 3.06421Z" fill="#0671ef"/>
<path d="M147.181 18.4737C147.692 19.1219 148.301 19.6424 149.008 20.0352C149.734 20.4281 150.54 20.6245 151.424 20.6245C152.288 20.6245 152.975 20.4379 153.486 20.0647C153.997 19.6915 154.252 19.1906 154.252 18.562C154.252 17.9728 153.987 17.4522 153.457 17.0005C152.926 16.5487 152.062 16.1657 150.864 15.8514C149.214 15.4193 147.976 14.8005 147.151 13.9952C146.327 13.1702 145.914 12.1979 145.914 11.0783C145.914 10.273 146.12 9.54619 146.533 8.898C146.965 8.2498 147.564 7.7391 148.33 7.36589C149.096 6.97304 150 6.77662 151.041 6.77662C152.278 6.77662 153.378 7.03197 154.341 7.54267C155.303 8.05337 156.069 8.68193 156.639 9.42834L155.077 10.9899C154.586 10.3417 153.987 9.82119 153.28 9.42834C152.592 9.03549 151.885 8.83907 151.159 8.83907C150.432 8.83907 149.813 9.03549 149.302 9.42834C148.811 9.80155 148.566 10.3221 148.566 10.9899C148.566 11.6185 148.841 12.1881 149.391 12.6988C149.96 13.2095 150.942 13.6515 152.337 14.0247C153.771 14.4371 154.891 14.9871 155.696 15.6746C156.501 16.3425 156.904 17.2067 156.904 18.2674C156.904 19.112 156.658 19.8683 156.167 20.5361C155.676 21.2039 155.008 21.7245 154.164 22.0977C153.319 22.4905 152.357 22.6869 151.276 22.6869C150.019 22.6869 148.9 22.4316 147.918 21.9209C146.955 21.3905 146.189 20.762 145.619 20.0352L147.181 18.4737Z" fill="#0671ef"/>
<path d="M159.83 0H162.482V22.0977H159.83V0ZM170.348 13.4354C170.348 11.7658 170.122 10.5872 169.671 9.89976C169.238 9.19263 168.472 8.83907 167.372 8.83907C165.762 8.83907 164.544 9.46763 163.719 10.7247C162.894 11.9818 162.482 13.6416 162.482 15.7041L162.275 14.0247L162.246 12.0211C162.482 10.9408 162.865 10.0176 163.395 9.25156C163.945 8.46586 164.613 7.85695 165.398 7.42482C166.204 6.99269 167.078 6.77662 168.021 6.77662C169.71 6.77662 170.957 7.30696 171.763 8.36765C172.588 9.42834 173 11.0194 173 13.1407V22.0977H170.348V13.4354Z" fill="#0671ef"/>
</svg>
