<?xml version="1.0" encoding="UTF-8"?>
<svg
      width="64"
      height="64"
      viewBox="0 0 64 64"
      fill="none"
      xmlns="http://www.w3.org/2000/svg"
    >
      <mask
        id="mask0_176_764"
        maskUnits="userSpaceOnUse"
        x="0"
        y="0"
        width="64"
        height="64"
      >
        <path d="M64 0H0V64H64V0Z" fill="white" />
      </mask>
      <g mask="url(#mask0_176_764)">
        <path
          d="M31.9977 0C14.3279 0 0 14.3279 0 32.0023C0 49.6767 14.3279 64 31.9977 64C34.8243 64 37.5674 63.6332 40.1804 62.9416C37.869 63.5218 35.4462 63.8282 32.9538 63.8282C24.7571 63.8282 17.3356 60.5049 11.9655 55.135C11.6081 55.0793 11.1857 54.9354 11.2786 54.6847L11.3017 54.6569C11.3389 54.6244 11.3807 54.6012 11.4317 54.5826C6.368 49.259 3.26289 42.0602 3.26289 34.1327C3.26289 17.7347 16.5558 4.4418 32.9538 4.4418C49.3518 4.4418 62.6495 17.7347 62.6495 34.1327C62.6495 44.3809 57.4557 53.4177 49.556 58.7553C58.2586 53.037 64 43.188 64 32.0023C64 14.3279 49.6721 0 31.9977 0Z"
          fill="#121212"
        />
        <path
          d="M22.7428 7.52824C19.5217 7.99698 18.2731 9.5472 18.055 10.935C17.8787 12.0628 18.5934 13.873 20.2086 12.9586C19.3407 11.0696 20.4036 8.67929 22.9238 8.08053C23.7918 7.87633 25.2352 7.9552 26.4884 8.08053L24.6829 12.2253C24.5483 12.6523 24.2652 12.8148 23.8985 12.824L22.599 12.7684C23.2951 11.3666 24.3534 9.93707 25.7133 8.47971C23.5922 8.81387 22.209 10.7261 21.0627 13.1304C20.2225 14.5089 19.2107 15.7063 17.8601 16.5557C17.4099 16.7831 16.839 16.862 16.231 16.8852L16.2542 16.3979C16.2913 15.6738 15.6787 15.0287 14.9592 15.1308C14.6111 15.1772 14.3837 15.3675 14.328 15.7342C14.2166 16.4583 15.1959 17.1127 15.6833 17.2334C16.5698 17.4468 18.185 17.1962 19.2571 16.5047C20.32 15.7295 21.2993 14.6063 22.223 13.2279L24.2188 13.3114C24.2188 13.3114 23.7222 15.1122 23.7315 15.7249C23.7315 15.762 23.7315 15.8084 23.7407 15.8549C23.8428 16.7089 24.6922 17.2658 25.5323 17.0987L26.7251 16.862C26.3167 16.0962 26.5162 14.611 26.7251 13.9055C27.2078 12.281 29.3289 7.64427 29.3289 7.64427C29.3289 7.64427 24.3719 7.2915 22.7382 7.53286L22.7428 7.52824Z"
          fill="#121212"
        />
        <path
          d="M33.4318 12.3785C33.3808 13.0422 33.8403 13.5389 34.1884 13.5574C35.3209 13.6132 35.3394 12.5921 35.2699 12.1557C35.1538 11.4317 34.0027 11.4781 33.6128 11.6638C33.0373 11.933 32.5546 13.2743 32.0812 13.7013C31.8677 13.8963 31.385 13.9891 30.958 13.9659L31.4221 12.3089C31.5289 11.7241 30.9301 11.3806 29.9462 11.4132C29.8069 11.4132 29.6677 11.4363 29.5331 11.4689C28.7673 11.6498 28.4145 11.9701 28.3495 12.3785C28.6048 12.23 28.7626 12.23 28.7719 12.4621C28.809 13.5853 28.071 15.3769 27.2542 17.2334C28.071 17.3216 28.7534 17.2891 29.2639 17.0895C29.728 16.9086 30.039 16.4769 30.1458 15.9942C30.2432 15.5439 30.4196 14.8478 30.6099 14.6064C30.7723 14.4022 31.1483 14.2583 31.5521 14.2258C31.7424 14.2119 31.8956 14.379 31.8816 14.5693C31.8399 15.1216 31.6728 15.7296 31.4825 16.3423C31.3293 16.8529 31.5521 17.0664 31.747 17.1267C32.4618 17.3494 33.9609 17.1777 34.6803 16.5651C34.3694 16.5651 34.0259 16.6161 34.0909 16.3284L34.62 14.7735C34.7175 14.4115 34.439 14.2583 33.9331 14.2258L32.6568 14.1423C32.4757 14.119 32.4943 14.0169 32.536 13.9288L33.4318 12.3739V12.3785Z"
          fill="#121212"
        />
        <path
          d="M39.5632 14.1285C39.5632 14.1285 40.4451 13.9846 40.7375 13.836C41.0531 13.6736 41.6007 13.1445 41.3594 12.4622C41.1923 12.1048 40.8674 11.8913 40.5147 11.7567C39.605 11.4086 38.6117 11.4179 37.7299 11.8356C35.8919 12.7082 34.7872 14.1285 35.126 16.0453C35.2885 16.9689 37.0012 17.3263 37.7252 17.3449C38.5189 17.3681 40.0877 17.2475 40.8349 16.6905C41.2294 16.4399 41.378 16.0453 41.2155 15.442C40.9788 14.7225 40.6307 14.4441 39.5632 14.1285ZM37.5952 16.8994C37.1126 16.5373 37.3539 14.7225 37.9202 14.5183C38.3239 14.3745 39.1084 14.7458 39.0248 15.8133C38.9459 16.8437 37.9526 17.1685 37.5952 16.8994ZM39.1501 13.6597C38.8391 13.8639 38.4864 13.966 38.1058 13.9846C37.8738 13.9938 37.6834 13.7943 37.7391 13.5668C37.8412 13.1399 38.2682 12.5179 38.6953 12.1512C39.0805 11.8171 39.6792 12.077 39.6792 12.5875C39.6839 12.8149 39.6189 13.047 39.4936 13.2791C39.4147 13.4322 39.2986 13.5668 39.1501 13.6597Z"
          fill="#121212"
        />
        <path
          d="M46.6458 12.2718C46.488 11.7519 45.4251 11.4827 44.8496 11.5245C44.0095 11.5848 42.8585 12.0489 42.0416 13.395C41.647 14.0494 41.35 15.5022 41.8281 16.4815C41.9395 16.7135 42.1298 16.9038 42.3525 17.0292C42.9234 17.3587 43.5779 17.4562 44.2183 17.1684C44.3065 17.1313 44.4179 17.0895 44.5804 16.9224L45.7315 15.7806C45.9171 15.6274 46.0378 15.8827 46.0285 16.2958C46.0192 16.7368 46.2977 17.1452 46.734 17.2241C47.342 17.3401 47.9826 17.2334 48.6509 16.9503C48.377 16.6903 48.1357 16.4629 48.3121 15.7249L49.5095 11.7287C48.4188 11.4827 47.4395 11.5848 46.6458 12.2718ZM45.6943 15.3304C45.4762 15.6692 45.2348 16.0034 44.6778 16.4397C44.4412 16.6254 44.0931 16.5 44.0234 16.2076C43.9538 15.9106 43.9353 15.5764 43.9817 15.1912C44.2416 13.4135 45.7733 11.181 46.4463 12.4156C46.6644 12.8148 46.3116 14.3697 45.6943 15.3304Z"
          fill="#121212"
        />
        <path
          d="M4.66001 33.8728C3.98236 32.4293 4.67393 31.2365 5.36085 30.9255C6.54902 30.3871 8.60052 30.8559 10.5824 31.0091L10.9676 29.9323L6.83217 29.8209C5.46296 29.8626 4.59967 30.6702 4.22835 31.3293C3.89881 31.9141 3.82456 33.1951 4.43257 33.9981L4.65536 33.8774L4.66001 33.8728Z"
          fill="#121212"
        />
        <path
          d="M8.84186 31.4686C8.00174 31.8956 7.60725 32.6615 7.24986 33.4551C7.24986 33.4551 6.80891 34.7408 6.60932 35.1446C6.52577 35.3163 6.30301 35.6459 6.1452 35.7573C5.91311 35.9197 4.77598 36.1889 5.00805 35.7944C5.2494 35.6783 5.42113 35.4324 5.42113 35.1446C5.42113 34.7454 5.09623 34.4252 4.70171 34.4252C4.3072 34.4252 3.9823 34.7501 3.9823 35.1446C3.9823 35.256 4.00551 35.372 4.03336 35.4509C4.20044 35.9336 5.29117 36.7412 6.68357 36.0264C7.29163 35.7758 7.80677 35.3627 8.17347 34.699C8.38698 34.2256 8.55403 33.6686 8.69791 33.0513C8.81863 32.4526 8.94858 31.8956 9.09708 31.5707C9.15279 31.4408 9.02746 31.399 8.84648 31.464L8.84186 31.4686Z"
          fill="#121212"
        />
        <path
          d="M10.2018 35.2976L12.0259 30.8047C12.0259 30.6933 10.8006 31.06 10.3132 31.8258C9.79333 32.963 9.34776 34.0537 9.03214 35.047C8.83255 35.85 9.01359 36.3141 9.5938 36.4208C10.0161 36.5276 10.355 36.4208 10.6334 36.1609C10.1693 36.1702 10.044 35.8685 10.2018 35.2976Z"
          fill="#121212"
        />
        <path
          d="M14.7874 32.9678C14.5322 32.8332 14.0541 32.8889 13.6271 32.9493L13.692 32.5919L12.3925 32.8936L10.754 37.897L12.179 37.4607L12.4946 36.3189C13.5853 36.1518 14.5507 35.8176 15.0984 34.9125C15.6414 33.9286 15.2237 33.1906 14.7874 32.9678ZM14.0401 34.5969C13.7663 35.5159 13.2604 35.9476 12.5874 36.0358L13.5249 33.1535C14.1794 33.1024 14.2908 33.6501 14.0401 34.5969Z"
          fill="#121212"
        />
        <path
          d="M18.8672 32.5454L18.7929 32.5268C17.4841 32.3226 14.495 35.0471 16.2727 36.1657C17.5629 36.9733 18.7929 35.3674 19.2246 34.3555C19.4149 33.7893 19.7537 32.7728 18.8672 32.5454ZM18.6166 33.8496L18.6073 33.9332C18.5702 34.5087 17.8646 36.407 17.0895 35.8919C17.0339 35.8593 16.9921 35.8036 16.9735 35.7433C16.9225 35.5576 16.9596 35.3116 17.0013 35.1167C17.2427 34.272 17.4516 33.3809 17.9389 32.9445C18.5609 32.3922 18.6676 33.353 18.6166 33.8496Z"
          fill="#121212"
        />
        <path
          d="M21.9119 33.1627L20.8351 35.0842C20.798 35.1492 20.5242 35.6968 20.3989 35.7943C20.3432 35.8361 20.2225 35.8964 20.2086 35.7758C20.3292 35.4277 20.3525 35.126 20.2086 34.9125C19.9579 34.6061 19.6701 34.6015 19.3592 34.8289C18.8069 35.2699 19.3221 36.1471 19.9672 36.1563C20.125 36.1563 20.4406 36.1563 20.5752 35.9846L21.0162 35.2002L21.7866 33.7707C21.9769 33.4226 22.2368 33.1163 22.5478 32.8749L21.7077 35.0749C21.5871 35.5483 21.7031 35.9336 22.2508 36.1517C22.4271 36.212 22.6267 36.1563 22.7474 36.1006C22.8356 36.045 22.9331 35.966 23.0584 35.7201L24.2651 33.3715C24.4229 33.1255 24.6086 32.9445 24.8267 32.8378C24.7896 33.1719 24.3672 34.2116 24.0423 35.0842C23.9588 35.4833 24.0563 35.7989 24.4647 35.98C24.9149 36.1889 25.2723 36.1332 25.5322 35.7897C25.1888 35.7154 25.1284 35.4741 25.277 35.1121L25.9964 33.1487C26.117 32.745 25.6807 32.3876 25.1052 32.485C24.7061 32.5825 24.3672 32.8053 24.1305 33.223L22.8727 35.7943C22.7799 35.9429 22.6035 35.9707 22.6685 35.7201L23.671 33.3066C23.8149 32.9306 23.4575 32.5036 22.8077 32.5407C22.4782 32.5825 22.0976 32.9074 21.9212 33.1673L21.9119 33.1627Z"
          fill="#121212"
        />
        <path
          d="M11.3018 54.657L11.2786 54.6848C11.1858 54.9354 11.6081 55.0793 11.9655 55.135C11.7845 54.954 11.6035 54.7683 11.4318 54.5827C11.3807 54.6013 11.339 54.6244 11.3018 54.657Z"
          fill="#121212"
        />
        <path
          d="M20.241 53.7657C23.1884 54.0442 26.2934 56.5459 29.3428 55.3855C30.4846 54.8193 28.396 55.121 28.0896 55.0282C26.9711 54.9724 26.1171 54.4108 25.1052 53.9189C23.8567 53.2923 22.8681 52.7631 21.6474 52.3408C21.29 52.1876 20.5335 52.0948 20.6495 51.5935C20.7238 51.3058 21.2482 50.7534 21.2993 50.54C21.4014 50.1315 20.3896 51.0505 20.2271 51.1155C18.7094 52.0902 16.8436 52.5079 15.1727 52.0345C12.8984 51.5332 11.506 48.7298 12.8659 46.7387C13.7988 45.1467 16.1567 44.7754 17.368 46.2652C18.1107 47.1378 17.9343 48.6324 17.1685 49.1476C16.6672 49.5327 15.9153 49.4724 15.3723 49.7323C14.7735 50.0248 15.2701 50.5956 15.7064 50.7163C16.3887 50.9669 17.2009 50.7627 17.8043 50.2847C18.1061 50.0666 18.4124 49.7695 18.7744 49.7695C19.0761 49.7741 19.4288 49.8809 19.6562 49.6163C20.1065 49.1986 20.0136 47.9361 20.2689 47.6855C20.32 47.6298 20.3803 47.6159 20.4499 47.6437C20.6077 47.7087 20.7748 48.0057 20.9141 48.3585C22.1672 51.626 25.2723 54.0164 28.8601 54.2159C31.0926 54.3969 33.9053 54.1231 35.126 52.9442C35.3023 52.6471 33.7057 53.283 33.404 53.2737C30.7491 53.7796 27.6951 53.1902 25.5787 51.4543C22.5525 48.934 22.2694 44.107 26.0521 42.1437C29.0086 40.3846 33.1952 42.8817 32.253 46.4416C31.8445 48.2146 29.8116 49.2218 28.1824 48.3585C27.5837 48.0708 26.4095 47.588 26.2888 48.5952C26.2795 50.1408 28.02 50.9902 29.5331 50.6839C30.1133 50.6142 30.6981 50.3032 31.2411 50.1826C31.4593 50.1454 31.6078 50.1826 31.7053 50.2893C31.8723 50.475 31.9466 50.8184 32.174 50.9623C32.4247 51.134 32.8796 51.0319 33.1766 50.8927C33.3576 50.8138 33.5293 50.707 33.6825 50.5864C34.2998 50.1547 34.5968 49.1754 35.0703 49.115C35.423 49.0732 35.7154 49.3982 35.9475 49.6581C36.9872 50.7627 37.1125 52.0855 37.0243 53.4826C37.0336 54.4619 37.2099 55.3948 36.7922 56.2628C36.6205 56.6387 36.3884 57.0054 36.2399 57.3953C35.6272 58.8945 37.1542 59.4933 38.3053 58.848C39.5956 58.2168 40.7513 57.437 41.9256 56.6016C43.4062 55.6084 44.8636 53.9096 46.5484 53.1438C48.7995 52.0716 52.2666 52.3687 54.4898 51.1108C57.4835 49.5049 59.9526 44.288 59.4838 40.8859C59.2565 38.1243 57.7991 35.836 56.5227 33.3576C56.0354 32.355 55.743 30.8094 55.1164 29.7512C54.0489 28.1314 53.0045 26.2841 51.6818 24.9845C50.8881 24.2883 49.7371 24.7896 48.883 25.1655C47.6438 25.7086 46.2189 26.052 44.6547 26.3119C42.9792 26.725 41.3733 25.9221 39.7906 25.4951C36.7597 24.5668 33.158 24.0516 30.0715 23.9634C28.7812 24.0516 24.2373 23.179 24.6736 25.4023C24.8407 25.9545 25.458 26.3769 25.7086 26.8782C25.7272 26.9292 25.7318 26.9803 25.6761 26.9942C25.4905 27.0685 24.6643 26.5115 24.0841 26.6461C23.5086 26.725 23.1698 27.2866 23.2255 27.8482C23.3786 29.2778 24.6643 30.336 25.5972 31.32C27.7926 33.4597 30.2247 35.5436 32.7682 37.0939C34.1559 37.9061 36.4209 39.2428 37.6973 39.9947C38.0454 40.2036 38.2821 40.3057 38.5096 40.5935C39.0387 41.4011 39.5492 42.7471 40.3382 43.5871C41.2897 44.534 42.5661 45.6155 43.9678 45.4994C44.7244 45.4298 45.2349 44.65 45.8429 44.6454C46.1957 44.6268 46.5298 44.8264 46.7805 45.0677C48.3539 46.683 45.6805 48.572 44.0838 47.9222C42.413 47.3374 40.3336 46.1678 38.7788 45.7315C38.4167 45.6201 38.0593 45.6386 37.702 45.5829C37.1264 45.4855 36.6623 44.9517 36.4302 44.4273C36.0125 43.68 36.8665 43.3133 36.8108 42.5614C36.6669 41.7445 35.9846 40.9973 35.3766 40.4078C31.4221 36.5323 23.7082 37.4141 21.4339 42.6496C21.0348 43.2669 21.0208 44.4551 20.4035 44.8311C19.8883 45.0074 19.6145 44.3483 19.5077 43.9538C19.2617 43.1369 18.3567 42.8631 17.6001 42.6496C14.2351 41.6146 10.5081 44.5804 10.3224 47.8294C10.2018 50.1223 11.8402 52.4986 14.1794 53.0556C14.6389 53.1855 14.9778 53.3062 15.0009 53.4733C15.0195 53.7193 14.6204 53.8956 14.4254 54.0024C13.6642 54.3877 12.7916 54.4944 11.933 54.4898C11.7705 54.4944 11.5756 54.5176 11.4317 54.5826C11.6035 54.7682 11.7845 54.9539 11.9655 55.1349C12.0397 55.1489 12.1094 55.1581 12.1743 55.1628C14.9824 55.4923 17.4237 53.5893 20.241 53.7657ZM45.6248 26.8503C47.356 26.7111 48.5581 26.0056 50.1919 25.8478C51.032 25.8339 51.5797 26.4837 52.0949 27.0685C54.1092 29.1617 55.0886 31.6727 56.4299 34.1605C56.7223 34.7918 56.4763 34.7778 55.859 34.2951C54.6801 33.3622 53.4687 32.0116 52.3269 30.9487C49.9366 28.628 46.8269 28.3077 43.8982 27.2402V27.2216C44.2695 26.9525 45.1142 26.971 45.6155 26.8503H45.6248ZM39.9437 26.8225C40.9648 27.0267 43.9446 27.9457 43.9446 27.9457C46.0239 28.5027 48.1172 29.2267 49.4354 29.8394C50.6189 30.3917 52.2202 31.3571 53.789 32.731C54.5826 33.4364 55.3763 34.3276 56.1607 35.4276C57.14 36.9546 57.943 38.7787 58.3515 41.2526C58.6949 43.1509 58.0729 44.599 57.2283 45.9403C58.1101 44.1023 58.0776 41.7817 57.6645 40.4635C57.3025 39.3125 56.648 37.5905 55.743 36.0403C54.2299 33.6964 51.2455 31.5381 49.3704 30.6052C46.4092 29.1339 40.7513 27.3934 36.8201 26.4373C36.8201 26.4373 39.1779 26.66 39.953 26.8178L39.9437 26.8225ZM52.9953 34.9867C53.1995 34.8521 53.5708 35.0563 53.8261 35.4415C54.0813 35.8268 54.1231 36.2491 53.9143 36.3838C53.7101 36.5183 53.3388 36.3141 53.0835 35.9289C52.8282 35.5436 52.7864 35.1213 52.9953 34.9867ZM52.2898 34.5225C51.9788 34.4854 51.7421 34.323 51.7607 34.1559C51.7792 33.9888 52.0485 33.8867 52.3594 33.9238C52.6704 33.9609 52.9071 34.1234 52.8885 34.2905C52.87 34.4575 52.6008 34.5596 52.2898 34.5225ZM51.1016 35.1213C50.9345 35.2187 50.7535 35.2234 50.7024 35.1352C50.6514 35.047 50.7442 34.8939 50.916 34.7964C51.0831 34.6989 51.264 34.6943 51.3151 34.7825C51.3661 34.8706 51.2733 35.0238 51.1016 35.1213ZM49.6953 32.6196C49.5746 32.7403 49.2961 32.6521 49.0733 32.4293C48.8505 32.2065 48.7624 31.928 48.883 31.8074C49.0037 31.6866 49.2822 31.7748 49.505 31.9976C49.7277 32.2204 49.8159 32.4989 49.6953 32.6196ZM49.7602 36.9175L45.1653 34.0909C46.878 34.7221 48.4143 35.6551 49.7602 36.9175ZM45.4809 33.7057C47.1936 34.3369 48.7299 35.2698 50.0758 36.5323L45.4809 33.7057ZM49.389 37.4141L44.9982 34.2766C46.6645 35.0238 48.1311 36.0588 49.389 37.4141ZM48.6927 37.5766L44.7197 34.5272C46.2421 35.2744 47.5695 36.2816 48.6927 37.5766ZM48.1451 37.7344L44.7847 34.9124C46.0889 35.6225 47.2121 36.5601 48.1451 37.7344ZM47.5463 37.8783L44.3577 34.8613C45.6155 35.6504 46.6876 36.6483 47.5463 37.8783ZM46.6273 37.6369L44.1256 35.1027C45.1885 35.7803 46.0332 36.6204 46.6273 37.6369ZM44.4041 30.6516C44.5248 30.531 44.8032 30.6191 45.0261 30.8419C45.2488 31.0647 45.337 31.3432 45.2163 31.4639C45.0956 31.5845 44.8172 31.4964 44.5944 31.2736C44.3716 31.0508 44.2834 30.7723 44.4041 30.6516ZM45.1374 30.2432C44.7661 29.9647 44.5851 29.5841 44.7336 29.3845C44.8822 29.1896 45.2999 29.2546 45.6712 29.533C46.0425 29.8116 46.2235 30.1921 46.075 30.3917C45.9264 30.5867 45.5087 30.5217 45.1374 30.2432ZM45.8569 31.2968C46.0054 31.1019 46.4231 31.1668 46.7944 31.4453C47.1657 31.7238 47.3467 32.1044 47.1982 32.3039C47.0497 32.5035 46.6319 32.4339 46.2607 32.1554C45.8893 31.877 45.7083 31.4964 45.8569 31.2968ZM42.8817 30.0018C42.7332 30.1968 42.3155 30.1318 41.9442 29.8533C41.5728 29.5748 41.3918 29.1943 41.5404 28.9947C41.6889 28.7997 42.1066 28.8647 42.4779 29.1432C42.8492 29.4217 43.0303 29.8023 42.8817 30.0018ZM40.2872 29.6491C40.3893 29.5145 40.6771 29.5609 40.9323 29.7512C41.1876 29.9415 41.3129 30.206 41.2108 30.3407C41.1087 30.4753 40.821 30.4289 40.5657 30.2385C40.3104 30.0482 40.185 29.7837 40.2872 29.6491ZM39.8694 28.7208C39.8694 28.5537 40.1247 28.4145 40.445 28.4145C40.7653 28.4145 41.0205 28.5491 41.0205 28.7208C41.0205 28.8926 40.7653 29.0271 40.445 29.0271C40.1247 29.0271 39.8694 28.8926 39.8694 28.7208ZM39.2754 29.1664C39.2754 29.3335 39.0201 29.4727 38.6998 29.4727C38.3796 29.4727 38.1243 29.3381 38.1243 29.1664C38.1243 28.9947 38.3796 28.86 38.6998 28.86C39.0201 28.86 39.2754 28.9947 39.2754 29.1664ZM30.1318 34.2116C29.6399 33.8263 29.0783 32.963 28.7023 32.174L28.6652 32.123C29.2964 32.9723 29.923 33.7521 30.5449 34.4204C30.5449 34.4204 30.22 34.2858 30.1318 34.2162V34.2116ZM33.2277 33.4179C32.5407 33.4272 31.8816 33.325 31.2643 33.0651C32.7032 32.8841 33.8821 32.4478 33.9842 30.9162C34.2673 31.4128 34.4298 31.9605 34.4344 32.5732C34.453 33.2369 33.9981 33.4689 33.2323 33.4133L33.2277 33.4179ZM34.8846 33.5525H35.4509C35.3395 33.7242 34.9218 33.8728 34.7222 33.8913C34.5597 33.9052 34.0677 33.8402 34.0677 33.8402C34.2905 33.65 34.5551 33.5432 34.88 33.5572L34.8846 33.5525ZM33.4504 34.7732C32.5871 34.6757 31.5567 34.1884 30.1922 32.8981C31.3943 33.6964 32.5129 34.3694 33.4504 34.7732ZM32.4757 34.9727C32.2251 34.9727 31.9373 34.9263 31.5614 34.7361C30.7631 34.2162 30.0297 33.4086 29.3149 32.5314C30.4614 33.5711 31.5939 34.5736 32.4757 34.9727ZM40.6771 41.3407C41.6935 42.3897 42.3897 43.5361 42.7425 44.7939L40.6771 41.3407ZM41.48 41.8652C42.3201 42.6496 42.9142 43.5268 43.2345 44.4969L41.48 41.8652ZM41.8606 41.9256C42.7704 42.6311 43.4387 43.4479 43.8472 44.3855L41.8606 41.9256ZM42.9838 42.6171C43.7497 43.1741 44.2602 43.7589 44.4969 44.3809L42.9838 42.6171ZM43.8703 42.8584C44.5248 43.3876 44.9378 43.8517 45.0864 44.2508L43.8703 42.8584ZM42.7425 49.6627C42.8168 49.6163 42.9049 49.3657 42.9049 49.3657C43.383 49.5514 43.7218 49.4446 43.9028 48.9804C44.729 49.0732 45.4902 49.0361 46.1121 48.7252C46.5716 48.883 46.9244 48.7809 47.0497 48.1357L49.556 46.3023C49.7649 46.1863 49.8206 46.1353 50.0155 46.1538C50.2058 46.1724 50.3868 46.2513 50.5493 46.3859L50.6328 46.2838L44.8311 42.9513L40.6863 40.7698L35.0888 37.6833L31.1298 35.1399L32.1416 35.3162C32.4061 35.423 32.6568 35.2652 32.9074 35.0795C33.3483 35.2141 33.6872 35.0935 33.9471 34.7825C34.3323 34.7778 34.634 34.6153 34.8428 34.2858C35.2931 34.2533 35.5437 33.9888 35.669 33.5757C36.4952 32.782 36.4952 32.1044 36.4998 31.4221C36.4998 31.4221 36.4905 29.9276 36.3791 29.4449C36.2817 29.0132 35.8686 28.201 35.5948 27.8482C35.4694 27.5883 35.3302 27.3609 35.1353 27.2309C35.0006 27.1706 34.8707 27.1567 34.7593 27.2402C34.5968 27.3377 34.5551 27.5187 34.5644 27.7322C34.5876 27.9039 34.6897 28.0571 34.8521 28.1917C34.9449 28.2474 35.0656 28.2381 35.191 28.2103C35.3116 28.2056 35.3905 28.1128 35.4323 27.9596C35.8965 28.6605 36.161 29.4588 36.11 30.4103C36.0867 31.5149 35.9986 32.485 35.669 32.9769C35.423 33.209 35.1353 33.3158 34.7871 33.2462C34.9032 32.5221 34.764 31.617 34.6015 31.1111C34.5365 30.8558 34.3091 30.0946 34.3091 30.0946L34.2534 29.0643C34.2534 29.0643 34.3973 28.4748 34.3973 28.2753C34.3926 27.9039 34.1652 27.101 33.9007 26.8735C33.9795 27.2216 34.0213 27.528 33.9471 27.6951C33.5247 27.9086 33.4226 28.1824 33.7475 28.5491C33.8681 28.6048 33.9146 28.7255 33.9007 28.8972C33.1256 29.2313 33.1395 29.663 33.6268 30.1596C33.65 31.3339 32.6382 32.3086 31.942 32.4804C31.2411 32.6567 29.7652 32.2575 29.0875 32.0023C28.7302 31.8677 28.2196 31.6124 27.7137 31.3385C27.9458 31.6635 28.1917 31.9465 28.4981 32.0858C28.6373 32.4896 28.8601 32.9584 29.12 33.4643C27.593 32.1972 26.1263 30.9672 25.3048 30.1086C24.8221 29.533 24.3812 28.9761 24.1398 28.5212C23.982 28.2892 23.8752 28.0293 23.8567 27.7183C23.8752 27.4955 23.9588 27.398 24.1816 27.5651L24.5158 28.0849C24.8592 28.3774 25.3094 28.6651 26.0753 28.9436L27.1103 29.6677C27.0732 29.598 26.7715 29.0596 26.5533 28.9436C26.3213 28.8136 25.1749 28.1824 25.1749 28.1824L24.5436 27.5651C24.9846 27.89 25.4208 28.1917 25.7922 28.2799L26.8875 28.7022L27.5512 29.7837C27.6812 30.0065 27.8344 30.1875 28.0246 30.3035C28.382 30.4892 28.6327 30.3778 28.7858 29.9647C28.8833 29.7929 28.888 29.4309 28.8648 29.0178C28.7487 28.498 28.5631 28.0339 28.266 27.6487C27.9225 27.1474 27.5327 26.6925 27.0871 26.3026C26.7576 25.9963 26.4327 25.8153 26.1124 25.6575L27.6394 27.2681C27.9968 27.6208 28.1824 28.02 28.2568 28.4562L27.412 27.2031L27.3378 27.2309C27.7555 28.0942 28.1685 28.9575 28.1546 29.5238C28.2103 29.8904 28.0896 29.844 27.8715 29.5609L26.9061 27.4351L26.4883 26.4233L25.8339 25.8431L25.4023 25.4023C25.2677 25.1701 25.3373 24.9752 25.6344 24.8313C26.493 24.8406 27.2774 24.901 27.8437 25.0866C27.8437 25.0866 28.3032 25.2258 28.396 25.3465C28.461 25.4347 28.3542 25.6714 28.3124 25.7689C28.2614 25.8896 28.1593 26.1495 28.2103 26.2841C28.2103 26.2841 28.7626 25.6343 29.004 25.4997C29.1943 25.3883 29.5888 25.3512 29.8858 25.4579C30.1643 25.5554 30.3917 25.7364 30.5867 25.9639C30.6981 26.1541 30.7631 26.4047 30.8095 26.6693C30.9673 26.739 31.0787 26.4883 31.0648 26.3955C31.023 26.1541 30.7955 25.6575 30.7677 25.5972C31.2226 25.7828 31.6542 25.8617 32.0858 25.8896L32.2437 26.2748C32.3736 26.4697 32.6104 26.3862 32.6661 26.2934C32.7032 26.2238 32.6661 25.9731 32.6661 25.9731C32.8331 26.0613 32.9909 26.0891 33.1302 26.0427C33.0095 26.2145 32.9724 26.4837 33.0374 26.6136C33.1116 26.7529 33.5015 26.9989 33.6639 26.6229C33.7011 26.4604 33.65 26.3119 33.5433 26.1727L34.6758 26.66C35.191 26.9571 35.6922 27.3748 36.1842 28.0153C36.5277 28.447 36.7458 29.1153 36.9036 29.8951C36.9779 30.7769 37.0057 31.5381 36.9036 32.0023C36.8294 32.4896 36.7133 32.9305 36.5369 33.3111C36.4302 33.5618 36.407 33.8402 36.4441 34.1327C36.5138 34.3647 36.6159 34.555 36.7551 34.7035C36.8851 34.8428 36.9454 35.0331 36.9454 35.2234C36.9454 35.3673 36.9315 35.5204 36.9036 35.6782C37.0893 35.4276 37.2332 35.1491 37.1775 34.7361C37.1218 34.374 37.0568 34.0677 36.8154 33.8728L37.0243 33.4828C37.2424 33.0559 37.3956 32.5407 37.4745 31.928L37.5209 30.6098L40.1711 31.3479C40.1711 31.3479 40.2594 31.7795 40.3661 31.9141C40.5471 32.1461 40.9741 32.2251 41.1319 32.0023C41.1923 31.9234 41.2665 31.6356 41.2665 31.6356L42.1716 31.9095C42.1716 31.9095 42.2552 32.1276 42.3062 32.1879C42.4918 32.4386 42.7889 32.4757 42.9328 32.3039C42.956 32.2668 42.9977 32.1415 42.9977 32.1415C42.9977 32.1415 43.5826 32.3643 43.7543 32.4804C44.1999 32.782 44.2788 33.2462 44.2788 33.65C44.2741 34.0538 44.0931 34.2905 43.7079 34.3323C43.1463 34.4111 42.5939 34.3833 42.0416 34.2487L44.3623 35.9892C44.7615 36.2491 45.0864 36.6251 45.3463 37.1217C45.4345 37.312 45.6944 37.4837 46.0193 37.6555C46.4742 37.8411 47.0543 37.9525 47.7784 37.985C47.7784 37.985 49.4911 37.9665 50.0619 37.9247C50.3729 37.9061 51.0552 37.8179 51.278 37.674C51.589 37.5255 51.7004 37.312 51.4312 36.9639L50.0805 35.85C49.3982 35.423 48.7438 35.0191 48.1821 34.6989L45.3277 33.1719L44.4552 32.6474C45.9357 33.093 47.4256 33.6824 48.9202 34.4065C50.0666 35.0841 51.1202 35.9335 52.0856 36.9454C51.8674 37.2656 51.6911 37.7715 51.7004 37.9572C51.7143 38.2681 51.9185 38.4863 52.3177 38.5048C52.6101 38.5234 52.8607 38.4027 53.0742 38.1892C53.7843 39.1685 54.4573 40.1386 54.8472 41.0344C54.708 41.0066 54.5965 41.0344 54.5269 41.1458C54.448 41.3825 54.5084 41.5821 54.6847 41.7445C54.8333 41.8977 55.0468 41.9534 55.2928 41.9487C55.4134 42.1947 55.5109 42.3758 55.3995 42.4825C55.3392 42.5382 55.1814 42.5289 55.135 42.6542C55.0096 43.0024 55.1814 43.1463 55.302 43.253C55.3949 43.3319 55.7523 43.4201 55.7523 43.4201L55.9704 44.0745C56.0632 44.4876 56.0911 44.9099 56.0632 45.3463C56.0632 45.3463 55.8544 45.3323 55.7894 45.3463C55.613 45.3973 55.6502 45.6062 55.7708 45.7594C55.8126 45.8104 55.9611 45.945 55.9611 45.945C55.9333 46.7897 55.7569 47.5138 55.4088 48.0986C54.7404 47.9361 54.0071 47.7505 53.2041 47.5556C52.8885 47.4766 52.8096 47.4442 52.2387 47.4442C52.0577 47.4395 52.0021 47.4581 51.7096 47.472C51.5193 47.5045 51.3012 47.6113 51.2409 47.7273C51.1805 47.8526 51.2873 48.0754 51.459 48.2517L53.5151 50.6281L50.0712 51.4682L46.2142 52.2387L45.1003 52.8931C45.1003 52.8931 44.5573 53.464 44.3159 53.5476C43.3737 53.8725 42.9467 53.4037 42.2459 52.5079C41.9117 52.0809 41.8745 51.5054 41.9209 50.9716C41.9209 50.9716 42.2505 50.8741 42.3433 50.8138C42.529 50.6931 42.6125 50.4286 42.3155 50.2708C42.2319 50.2244 41.9581 50.1594 41.9581 50.1594C42.0973 49.8901 42.2737 49.7138 42.5197 49.6813C42.5197 49.6813 42.696 49.6952 42.7425 49.6627ZM37.2099 47.5973C37.2517 47.2539 37.196 46.9011 37.3399 46.7154L37.3817 46.6644C38.3935 46.075 39.6606 47.537 40.6492 47.8108C40.8534 47.8943 41.053 47.9733 41.2619 48.0336C41.7864 48.2286 42.4361 48.1589 42.4222 48.3956C42.2226 48.9898 41.7585 49.5467 41.4568 50.113C41.1319 50.7117 40.6724 51.1804 40.7513 51.8117C40.7838 52.1412 40.9602 52.3454 41.2572 52.6332C41.8096 53.2273 42.8307 54.0906 43.3134 54.7311C43.3598 54.8611 43.2298 54.9724 42.9746 55.1767C42.0091 55.8357 39.7859 58.2028 38.6766 56.8894C38.3007 56.0539 38.7555 54.8982 38.5374 54.0164C38.4724 53.7704 38.2728 53.5754 38.0965 53.3619C37.3817 52.4383 39.4564 52.4893 38.18 51.069C37.7623 50.4889 37.5673 49.8252 37.196 49.2218C36.8712 48.6788 37.1311 48.1636 37.2099 47.5973Z"
          fill="#121212"
        />
        <path
          d="M49.6024 46.734C49.5375 46.7619 49.44 46.8222 49.375 46.8825L49.4725 46.8176L49.6024 46.734Z"
          fill="#121212"
        />
        <path
          d="M49.8392 47.4164C49.9227 47.3514 50.0434 47.1564 50.0619 47.0497C50.0944 46.8687 50.048 46.6506 49.8299 46.6784C49.7881 46.6784 49.751 46.6877 49.7138 46.697C49.6767 46.7063 49.6489 46.7156 49.621 46.7248C49.6163 46.7248 49.6117 46.7295 49.6024 46.7341L49.4725 46.8177L49.375 46.8826C49.375 46.8826 49.3518 46.9012 49.3425 46.9105C49.2358 47.0172 49.1197 47.2122 49.2219 47.4071C49.3843 47.6206 49.6581 47.5556 49.8392 47.4164Z"
          fill="#121212"
        />
        <path
          d="M13.3719 48.5534C13.4415 47.9361 14.1285 46.9614 15.1125 46.7851C15.8133 46.6783 16.3795 46.9382 16.7833 47.6437C17.1082 48.3538 16.7091 48.818 15.6462 49.0593C16.3331 49.3564 17.2335 48.8087 17.4703 48.2888C17.7998 47.5648 17.3171 46.2327 16.4723 45.931C15.9757 45.75 15.0335 45.6108 14.3513 45.931C12.9728 46.6226 12.6711 47.7644 12.8335 49.1057C13.4694 50.9298 14.3884 51.6074 15.4745 51.6028C13.9149 50.9623 13.2652 49.477 13.3673 48.558L13.3719 48.5534Z"
          fill="#121212"
        />
        <path
          d="M25.4765 44.8451C26.0613 44.2325 27.4165 43.6708 28.7533 43.9818C29.6816 43.9725 30.3082 45.1422 30.401 45.7362C30.466 46.1726 30.2757 47.1937 29.8023 47.3886C29.3706 47.565 28.5398 47.6253 27.941 47.3886C28.0756 47.9873 28.6419 48.2055 29.5609 48.1173C30.7305 48.1498 31.7841 47.0173 31.8259 45.7362C31.8584 44.7384 31.4824 43.4063 29.4495 42.5198C28.2706 42.1067 27.0778 42.2367 25.8756 42.97C24.4786 44.005 24.033 45.4021 23.9495 46.9384C24.0748 48.8506 24.7106 50.1688 25.9313 50.7954C24.3486 49.338 23.9773 46.4186 25.4811 44.8451H25.4765Z"
          fill="#121212"
        />
        <path
          d="M36.5926 53.5848C34.8613 54.4899 32.9491 55.3393 31.6866 55.8127C29.9507 56.4671 26.8131 56.8477 24.46 55.8312C25.7642 56.9962 27.709 57.4186 30.2803 57.103C32.6474 56.676 34.7963 56.0076 36.5879 54.9494V53.5848H36.5926Z"
          fill="#121212"
        />
        <path
          d="M52.1088 41.3407C51.9695 41.5403 52.1598 41.9163 52.5404 42.1808C52.921 42.4453 53.3434 42.4964 53.4826 42.2968C53.6218 42.0926 53.4269 41.7167 53.0509 41.4521C52.6704 41.1876 52.248 41.1365 52.1088 41.3407Z"
          fill="#121212"
        />
        <path
          d="M51.8813 40.0737C52.2619 40.3383 52.6842 40.3847 52.8235 40.1851C52.9628 39.9856 52.7678 39.6049 52.3872 39.3404C52.0113 39.0805 51.5889 39.0294 51.4496 39.229C51.3057 39.4286 51.5007 39.8091 51.8813 40.0737Z"
          fill="#121212"
        />
        <path
          d="M51.0599 39.6838C51.2827 39.5817 51.3059 39.1547 51.1109 38.737C50.9113 38.3192 50.5726 38.064 50.3497 38.1661C50.127 38.2728 50.1084 38.6952 50.3033 39.113C50.4982 39.5353 50.8371 39.786 51.0599 39.6838Z"
          fill="#121212"
        />
        <path
          d="M54.0212 44.0002C53.8819 44.1998 54.0769 44.5804 54.4574 44.8449C54.8381 45.1095 55.2558 45.1605 55.3996 44.9563C55.5388 44.7567 55.3439 44.3762 54.9633 44.1116C54.5828 43.8517 54.165 43.8007 54.0212 44.0002Z"
          fill="#121212"
        />
        <path
          d="M48.4561 48.4466C48.5396 48.572 48.7485 48.5812 48.9202 48.4652C49.0873 48.3492 49.1569 48.1543 49.0734 48.0289C48.9898 47.9036 48.781 47.8943 48.6092 48.0104C48.4421 48.1264 48.3725 48.3213 48.4561 48.4466Z"
          fill="#121212"
        />
        <path
          d="M47.5973 48.7762C47.7691 48.6602 47.8387 48.4652 47.7552 48.3353C47.667 48.2099 47.4627 48.2053 47.291 48.3167C47.1192 48.4328 47.0497 48.6277 47.1332 48.753C47.2214 48.883 47.4256 48.8876 47.5973 48.7762Z"
          fill="#121212"
        />
        <path
          d="M46.3163 49.4401C46.4324 49.3611 46.4834 49.2266 46.4231 49.1384C46.3674 49.0502 46.2235 49.0455 46.1029 49.1244C45.9868 49.2033 45.9358 49.338 45.9961 49.4261C46.0564 49.5143 46.2003 49.5189 46.3163 49.4401Z"
          fill="#121212"
        />
        <path
          d="M45.518 50.294C45.5783 50.4333 45.7779 50.4751 45.9636 50.3915C46.1539 50.308 46.2513 50.1316 46.191 49.9924C46.1306 49.8578 45.931 49.8114 45.7454 49.8949C45.5551 49.9784 45.453 50.1595 45.518 50.294Z"
          fill="#121212"
        />
        <path
          d="M45.3927 49.7323C45.5458 49.6673 45.6248 49.5234 45.5783 49.412C45.5273 49.3006 45.3649 49.2682 45.2163 49.3331C45.0678 49.3981 44.9842 49.542 45.0353 49.6534C45.0817 49.7648 45.2441 49.7973 45.3927 49.7323Z"
          fill="#121212"
        />
        <path
          d="M43.1276 50.4519C43.3365 50.387 43.4664 50.2152 43.4246 50.062C43.3782 49.9089 43.1694 49.8346 42.9651 49.8949C42.7563 49.9599 42.6263 50.1317 42.6681 50.2848C42.7145 50.438 42.9234 50.5122 43.1276 50.4519Z"
          fill="#121212"
        />
        <path
          d="M45.3787 51.4357C45.2209 51.4357 45.0909 51.612 45.0909 51.8255C45.0909 52.0391 45.2209 52.2201 45.3787 52.2201C45.5365 52.2201 45.6712 52.0437 45.6712 51.8255C45.6712 51.6074 45.5411 51.4357 45.3787 51.4357Z"
          fill="#121212"
        />
        <path
          d="M44.6035 50.7257C44.6361 50.8278 44.7799 50.8788 44.9191 50.837C45.063 50.7953 45.1559 50.6746 45.1234 50.5679C45.0909 50.4611 44.9517 50.4147 44.8078 50.4565C44.6639 50.4983 44.5711 50.6189 44.6035 50.7257Z"
          fill="#121212"
        />
        <path
          d="M44.3252 50.2939C44.2138 50.3264 44.1488 50.4192 44.172 50.4981C44.1952 50.577 44.302 50.6188 44.4087 50.5863C44.5201 50.5538 44.5898 50.461 44.5619 50.3821C44.5387 50.3032 44.432 50.2614 44.3252 50.2939Z"
          fill="#121212"
        />
        <path
          d="M44.5526 50.0526C44.7846 49.9504 44.9053 49.7183 44.8218 49.5327C44.7382 49.3471 44.4876 49.2821 44.2555 49.3842C44.0234 49.491 43.9028 49.723 43.9863 49.9087C44.0698 50.0897 44.3205 50.1593 44.5526 50.0526Z"
          fill="#121212"
        />
        <path
          d="M43.5455 51.0412C43.7311 51.1387 43.9493 51.097 44.0281 50.9484C44.1071 50.7953 44.0143 50.5957 43.8286 50.4982C43.6383 50.4007 43.4248 50.4425 43.3459 50.5911C43.267 50.7442 43.3552 50.9438 43.5455 51.0412Z"
          fill="#121212"
        />
        <path
          d="M48.2888 49.1893C48.4606 49.0732 48.5302 48.8783 48.4467 48.753C48.3585 48.6277 48.1542 48.6184 47.9825 48.7344C47.8108 48.8504 47.7412 49.0454 47.8247 49.1707C47.9129 49.296 48.1171 49.3053 48.2888 49.1893Z"
          fill="#121212"
        />
        <path
          d="M47.1795 49.853C47.4812 49.6998 47.6669 49.4677 47.5973 49.3332C47.5276 49.1985 47.2306 49.2125 46.9336 49.3656C46.6319 49.5188 46.4462 49.7509 46.5158 49.8855C46.5855 50.0201 46.8825 50.0062 47.1795 49.853Z"
          fill="#121212"
        />
        <path
          d="M48.4236 47.8433C48.6696 47.6763 48.8041 47.4349 48.7206 47.3096C48.6371 47.1843 48.3633 47.2214 48.1126 47.3885C47.8666 47.5556 47.732 47.7969 47.8156 47.9223C47.8991 48.0476 48.173 48.0104 48.4236 47.8433Z"
          fill="#121212"
        />
        <path
          d="M53.3341 42.9791C53.051 42.7842 52.7121 42.7888 52.5683 42.9884C52.4291 43.1926 52.5451 43.5129 52.8282 43.7125C53.1113 43.9074 53.4548 43.9028 53.594 43.7032C53.7332 43.499 53.6172 43.1787 53.3341 42.9791Z"
          fill="#121212"
        />
        <path
          d="M49.0547 41.0856C49.3379 41.2805 49.6813 41.2805 49.8206 41.0763C49.9598 40.8767 49.8438 40.5518 49.5607 40.3569C49.2776 40.162 48.9387 40.162 48.7948 40.3662C48.6556 40.5658 48.7717 40.8907 49.0547 41.0856Z"
          fill="#121212"
        />
        <path
          d="M49.2775 39.5492C49.5328 39.7303 49.8438 39.7256 49.9691 39.5446C50.0944 39.3589 49.9923 39.0666 49.737 38.8902C49.4817 38.7138 49.1707 38.7185 49.0408 38.8994C48.9155 39.0805 49.0222 39.3729 49.2775 39.5492Z"
          fill="#121212"
        />
        <path
          d="M46.8269 38.7786C47.0868 38.9596 47.3792 38.9782 47.486 38.8297C47.5927 38.6765 47.4674 38.4073 47.2121 38.2309C46.9522 38.05 46.6598 38.0267 46.5531 38.1799C46.4463 38.3284 46.5716 38.5976 46.8269 38.7786Z"
          fill="#121212"
        />
        <path
          d="M43.0998 36.3884C43.3598 36.5694 43.6522 36.588 43.7589 36.4395C43.8657 36.2863 43.7404 36.0171 43.4851 35.8407C43.2252 35.6597 42.9328 35.6365 42.826 35.7896C42.7193 35.9382 42.8446 36.2074 43.0998 36.3884Z"
          fill="#121212"
        />
        <path
          d="M46.5763 39.6837C46.7109 39.6095 46.7109 39.3634 46.581 39.1407C46.451 38.9132 46.2375 38.7926 46.1076 38.8715C45.9729 38.9457 45.9729 39.1917 46.1029 39.4145C46.2328 39.642 46.4463 39.7626 46.5763 39.6837Z"
          fill="#121212"
        />
        <path
          d="M50.8973 40.4961C50.772 40.6818 50.8741 40.9742 51.1294 41.1506C51.3893 41.3269 51.6957 41.3269 51.8256 41.1413C51.9509 40.9602 51.8488 40.6679 51.5889 40.4915C51.3336 40.3105 51.0273 40.3151 50.8973 40.4961Z"
          fill="#121212"
        />
        <path
          d="M54.4387 43.2344C54.5733 43.1092 54.5455 42.8539 54.3738 42.6636C54.1974 42.4686 53.9468 42.4129 53.8121 42.5383C53.6729 42.6589 53.7008 42.9188 53.8771 43.1092C54.0489 43.3041 54.2995 43.3598 54.4387 43.2344Z"
          fill="#121212"
        />
        <path
          d="M51.3801 41.8235C51.2641 41.9256 51.2919 42.1345 51.4311 42.2923C51.5704 42.4501 51.7792 42.4919 51.8906 42.3944C52.002 42.2923 51.9788 42.0834 51.8396 41.9256C51.6957 41.7678 51.4915 41.7214 51.3801 41.8235Z"
          fill="#121212"
        />
        <path
          d="M50.7443 41.6239C50.8557 41.5217 50.8325 41.3129 50.6886 41.1551C50.5493 40.9973 50.3451 40.9509 50.2291 41.053C50.1177 41.1551 50.1409 41.3639 50.2848 41.5217C50.424 41.6795 50.6329 41.726 50.7443 41.6239Z"
          fill="#121212"
        />
        <path
          d="M41.6285 36.3282C41.6285 36.4767 41.8003 36.602 42.0092 36.602C42.218 36.602 42.3943 36.4767 42.3943 36.3282C42.3943 36.1796 42.2227 36.0543 42.0092 36.0543C41.7956 36.0543 41.6285 36.175 41.6285 36.3282Z"
          fill="#121212"
        />
        <path
          d="M41.7864 35.7016C41.9999 35.7016 42.1716 35.5809 42.1716 35.4277C42.1716 35.2746 41.9999 35.1539 41.7864 35.1539C41.5729 35.1539 41.4011 35.2792 41.4011 35.4277C41.4011 35.5763 41.5729 35.7016 41.7864 35.7016Z"
          fill="#121212"
        />
        <path
          d="M40.4311 35.0981C40.626 34.9635 40.6353 34.634 40.445 34.3554C40.2547 34.0816 39.9437 33.9703 39.7488 34.1048C39.5539 34.2394 39.5492 34.5689 39.7348 34.8428C39.9252 35.1213 40.2361 35.2327 40.4311 35.0981Z"
          fill="#121212"
        />
        <path
          d="M41.1087 34.4391C41.2619 34.3323 41.2665 34.0724 41.118 33.8543C40.9695 33.6362 40.7235 33.548 40.5657 33.6547C40.4125 33.7615 40.4079 34.0214 40.5564 34.2395C40.7049 34.4577 40.9509 34.5458 41.1087 34.4391Z"
          fill="#121212"
        />
        <path
          d="M53.4408 41.2618C53.5708 41.169 53.6218 41.0204 53.5569 40.9276C53.4873 40.8347 53.3295 40.8347 53.1995 40.9276C53.0695 41.0204 53.0185 41.1736 53.0881 41.2664C53.153 41.3592 53.3109 41.3546 53.4408 41.2618Z"
          fill="#121212"
        />
        <path
          d="M50.3543 44.6919C46.1631 42.088 41.48 39.7163 36.5183 37.4699C40.0829 40.0226 50.1315 44.9146 50.3543 44.6919Z"
          fill="#121212"
        />
        <path
          d="M30.4244 28.5307C30.1737 28.5307 29.9695 28.7349 29.9695 28.9855C29.9695 29.2362 30.1737 29.4404 30.4244 29.4404C30.675 29.4404 30.8792 29.2362 30.8792 28.9855C30.8792 28.7349 30.675 28.5307 30.4244 28.5307Z"
          fill="#121212"
        />
        <path
          d="M32.7218 29.1293C32.7218 28.8926 32.5083 28.6977 32.2437 28.6977C31.9791 28.6977 31.7656 28.8926 31.7656 29.1293C31.7656 29.366 31.9791 29.561 32.2437 29.561C32.5083 29.561 32.7218 29.366 32.7218 29.1293Z"
          fill="#121212"
        />
        <path
          d="M32.5454 30.6193C32.3365 30.6193 32.1648 30.8142 32.1648 31.0463C32.1648 31.2783 32.3365 31.4733 32.5454 31.4733C32.7542 31.4733 32.926 31.283 32.926 31.0463C32.926 30.8095 32.7542 30.6193 32.5454 30.6193Z"
          fill="#121212"
        />
        <path
          d="M30.2944 30.1876C30.1134 30.1876 29.9695 30.3314 29.9695 30.5124C29.9695 30.6934 30.1134 30.8373 30.2944 30.8373C30.4754 30.8373 30.6193 30.6934 30.6193 30.5124C30.6193 30.3314 30.4754 30.1876 30.2944 30.1876Z"
          fill="#121212"
        />
        <path
          d="M31.3479 29.5609C31.2272 29.5609 31.1298 29.6769 31.1298 29.8255C31.1298 29.974 31.2272 30.0946 31.3479 30.0946C31.4686 30.0946 31.5707 29.974 31.5707 29.8255C31.5707 29.6769 31.4686 29.5609 31.3479 29.5609Z"
          fill="#121212"
        />
        <path
          d="M32.8609 27.8575C33.0634 27.8575 33.2276 27.6934 33.2276 27.4908C33.2276 27.2884 33.0634 27.1242 32.8609 27.1242C32.6584 27.1242 32.4943 27.2884 32.4943 27.4908C32.4943 27.6934 32.6584 27.8575 32.8609 27.8575Z"
          fill="#121212"
        />
        <path
          d="M32.8426 28.1454C32.6801 28.1454 32.5455 28.2661 32.5455 28.4192C32.5455 28.5724 32.6801 28.6884 32.8426 28.6884C33.005 28.6884 33.1396 28.5678 33.1396 28.4192C33.1396 28.2707 33.0097 28.1454 32.8426 28.1454Z"
          fill="#121212"
        />
        <path
          d="M31.2597 28.3032C31.2597 28.2196 31.1901 28.1454 31.1019 28.1454C31.0137 28.1454 30.9441 28.2196 30.9441 28.3032C30.9441 28.3913 31.0137 28.4656 31.1019 28.4656C31.1901 28.4656 31.2597 28.3913 31.2597 28.3032Z"
          fill="#121212"
        />
        <path
          d="M31.0184 27.89C30.4336 27.89 29.9416 27.8668 29.8116 27.7415C30.3268 27.4769 30.545 27.1335 30.531 26.7297C30.2757 27.3006 29.8626 27.5512 29.2964 27.4908C28.7023 27.3006 28.6049 26.9432 28.6791 26.5255C28.758 26.2098 29.0272 25.9406 29.4449 25.7039C29.0133 25.7178 28.6606 25.9452 28.4285 26.5115C28.3774 26.6879 28.3914 26.8642 28.4424 27.0453C28.1639 26.985 27.7787 26.5255 27.3934 26.0706C27.6766 26.6879 28.1036 27.282 28.9251 27.7925C29.0411 28.4562 29.2314 28.4469 29.4774 27.9921C29.9694 28.1452 30.4846 28.0849 31.0184 27.89Z"
          fill="#121212"
        />
        <path
          d="M28.9297 26.284C28.8601 26.5532 28.9437 26.8828 29.0412 27.0499C29.1526 27.2356 29.5888 27.3098 29.807 27.2448C29.9926 27.1938 30.1969 26.8457 30.2015 26.6693C30.2015 26.4651 29.9973 26.1262 29.6956 26.0334C29.6909 26.7575 29.431 26.841 28.9297 26.284Z"
          fill="#121212"
        />
      </g>
</svg>
