<svg width="28" height="28" viewBox="0 0 28 28" fill="none" xmlns="http://www.w3.org/2000/svg">
<path d="M16.0953 4.82525C15.8234 4.5444 15.4978 4.3211 15.1378 4.16859C14.7779 4.01609 14.3909 3.9375 14 3.9375C13.6091 3.9375 13.2221 4.01609 12.8622 4.16859C12.5022 4.3211 12.1766 4.5444 11.9047 4.82525L6.30584 10.6072C5.98501 10.9386 5.76917 11.3586 5.68517 11.8136C5.00534 15.5213 4.95525 19.3172 5.53701 23.0416L5.74234 24.3599C5.80767 24.7764 6.16701 25.0832 6.58817 25.0832H10.5C10.6547 25.0832 10.8031 25.0218 10.9125 24.9124C11.0219 24.803 11.0833 24.6546 11.0833 24.4999V16.3332H16.9167V24.4999C16.9167 24.6546 16.9781 24.803 17.0875 24.9124C17.1969 25.0218 17.3453 25.0832 17.5 25.0832H21.4118C21.6157 25.0832 21.8129 25.0103 21.9678 24.8776C22.1227 24.745 22.2251 24.5614 22.2565 24.3599L22.463 23.0416C23.0447 19.3172 22.9946 15.5213 22.3148 11.8136C22.2312 11.3589 22.0148 10.9392 21.693 10.6072L16.0953 4.82525Z" fill="#1A1A1A"/>
</svg>
