<svg width="28" height="28" viewBox="0 0 28 28" fill="none" xmlns="http://www.w3.org/2000/svg">
<path d="M16.0953 4.82537C15.8234 4.54453 15.4978 4.32122 15.1378 4.16871C14.7779 4.01621 14.3909 3.93762 14 3.93762C13.6091 3.93762 13.2221 4.01621 12.8622 4.16871C12.5022 4.32122 12.1766 4.54453 11.9047 4.82537L6.30583 10.6074C5.985 10.9387 5.76916 11.3587 5.68516 11.8137C5.00533 15.5215 4.95524 19.3173 5.537 23.0417L5.74233 24.36C5.80766 24.7765 6.167 25.0834 6.58816 25.0834H10.5C10.6547 25.0834 10.8031 25.0219 10.9125 24.9125C11.0219 24.8031 11.0833 24.6547 11.0833 24.5V16.3334H16.9167V24.5C16.9167 24.6547 16.9781 24.8031 17.0875 24.9125C17.1969 25.0219 17.3453 25.0834 17.5 25.0834H21.4118C21.6157 25.0833 21.8129 25.0104 21.9678 24.8777C22.1227 24.7451 22.2251 24.5615 22.2565 24.36L22.463 23.0417C23.0447 19.3173 22.9946 15.5215 22.3148 11.8137C22.2312 11.359 22.0148 10.9393 21.693 10.6074L16.0953 4.82537Z" fill="#0088FF"/>
</svg>
