<svg width="28" height="28" viewBox="0 0 28 28" fill="none" xmlns="http://www.w3.org/2000/svg">
<path fill-rule="evenodd" clip-rule="evenodd" d="M22.1667 25.0833H7.00002C5.91705 25.0833 4.87844 24.6531 4.11267 23.8873C3.34689 23.1215 2.91669 22.0829 2.91669 21V5.7668C2.91669 4.52197 4.14869 3.73213 5.23252 4.1078C5.38769 4.16147 5.53935 4.23963 5.68402 4.34347L5.88819 4.4893C6.38479 4.84166 6.97888 5.03046 7.58779 5.02941C8.1967 5.02837 8.79013 4.83753 9.28552 4.48347C9.9809 3.98858 10.8132 3.72266 11.6667 3.72266C12.5202 3.72266 13.3525 3.98858 14.0479 4.48347C14.5432 4.83753 15.1367 5.02837 15.7456 5.02941C16.3545 5.03046 16.9486 4.84166 17.4452 4.4893L17.6494 4.34347C18.8079 3.51513 20.4167 4.34347 20.4167 5.7668V14.5833H24.5C24.7321 14.5833 24.9546 14.6755 25.1187 14.8396C25.2828 15.0037 25.375 15.2262 25.375 15.4583V21.875C25.375 22.7259 25.037 23.5419 24.4353 24.1436C23.8336 24.7453 23.0176 25.0833 22.1667 25.0833ZM20.7084 16.3333V21.875C20.7084 22.2617 20.862 22.6327 21.1355 22.9062C21.409 23.1797 21.7799 23.3333 22.1667 23.3333C22.5535 23.3333 22.9244 23.1797 23.1979 22.9062C23.4714 22.6327 23.625 22.2617 23.625 21.875V16.3333H20.7084ZM15.75 11.375C15.75 11.1429 15.6578 10.9203 15.4937 10.7562C15.3296 10.5922 15.1071 10.5 14.875 10.5H7.87502C7.64296 10.5 7.4204 10.5922 7.2563 10.7562C7.09221 10.9203 7.00002 11.1429 7.00002 11.375C7.00002 11.607 7.09221 11.8296 7.2563 11.9937C7.4204 12.1578 7.64296 12.25 7.87502 12.25H14.875C15.1071 12.25 15.3296 12.1578 15.4937 11.9937C15.6578 11.8296 15.75 11.607 15.75 11.375ZM14.5834 14.875C14.5834 14.6429 14.4912 14.4203 14.3271 14.2562C14.163 14.0922 13.9404 14 13.7084 14H7.87502C7.64296 14 7.4204 14.0922 7.2563 14.2562C7.09221 14.4203 7.00002 14.6429 7.00002 14.875C7.00002 15.107 7.09221 15.3296 7.2563 15.4937C7.4204 15.6578 7.64296 15.75 7.87502 15.75H13.7084C13.9404 15.75 14.163 15.6578 14.3271 15.4937C14.4912 15.3296 14.5834 15.107 14.5834 14.875ZM14.875 17.5C15.1071 17.5 15.3296 17.5922 15.4937 17.7562C15.6578 17.9203 15.75 18.1429 15.75 18.375C15.75 18.607 15.6578 18.8296 15.4937 18.9937C15.3296 19.1578 15.1071 19.25 14.875 19.25H7.87502C7.64296 19.25 7.4204 19.1578 7.2563 18.9937C7.09221 18.8296 7.00002 18.607 7.00002 18.375C7.00002 18.1429 7.09221 17.9203 7.2563 17.7562C7.4204 17.5922 7.64296 17.5 7.87502 17.5H14.875Z" fill="#0088FF"/>
</svg>
