<svg width="22" height="22" viewBox="0 0 22 22" fill="none" xmlns="http://www.w3.org/2000/svg">
<path fill-rule="evenodd" clip-rule="evenodd" d="M18.8192 4.15252C18.9406 4.0222 19.0067 3.84982 19.0036 3.67171C19.0004 3.4936 18.9283 3.32366 18.8023 3.1977C18.6764 3.07174 18.5064 2.99959 18.3283 2.99645C18.1502 2.9933 17.9778 3.05942 17.8475 3.18086L3.18084 17.8475C3.11329 17.9105 3.05911 17.9864 3.02154 18.0707C2.98396 18.155 2.96376 18.2461 2.96213 18.3384C2.9605 18.4307 2.97748 18.5224 3.01206 18.608C3.04664 18.6936 3.0981 18.7714 3.16339 18.8366C3.22867 18.9019 3.30643 18.9534 3.39204 18.988C3.47764 19.0225 3.56934 19.0395 3.66165 19.0379C3.75396 19.0363 3.845 19.0161 3.92933 18.9785C4.01366 18.9409 4.08956 18.8867 4.1525 18.8192L6.93459 16.0371C8.14275 16.5944 9.526 16.9584 11 16.9584C13.3998 16.9584 15.5577 15.9949 17.1123 14.8014C17.8915 14.2038 18.5304 13.5401 18.9778 12.8948C19.4178 12.2604 19.7083 11.5949 19.7083 11C19.7083 10.4051 19.4178 9.7396 18.9778 9.10619C18.5304 8.45994 17.8915 7.79627 17.1123 7.19952C16.8648 7.00886 16.6008 6.82369 16.324 6.64861L18.8192 4.15252ZM13.8692 9.10436L12.8608 10.1109C13.0446 10.4957 13.1046 10.9281 13.0325 11.3485C12.9604 11.7689 12.7597 12.1565 12.4581 12.4581C12.1565 12.7597 11.7688 12.9604 11.3485 13.0325C10.9281 13.1046 10.4957 13.0447 10.1108 12.8609L9.1025 13.8692C9.76354 14.3069 10.5555 14.5026 11.3444 14.4232C12.1332 14.3439 12.8703 13.9943 13.4309 13.4337C13.9915 12.8731 14.3411 12.1359 14.4205 11.3471C14.4998 10.5583 14.3041 9.76631 13.8664 9.10527" fill="#949494"/>
<path d="M11.6142 7.61746C11.6519 7.62452 11.6907 7.62238 11.7275 7.61121C11.7642 7.60004 11.7976 7.58017 11.825 7.55329L13.6125 5.76579C13.6403 5.73846 13.6604 5.70432 13.6709 5.66678C13.6813 5.62923 13.6818 5.5896 13.6721 5.55184C13.6625 5.51407 13.6431 5.47951 13.6159 5.45158C13.5887 5.42366 13.5547 5.40336 13.5172 5.39271C12.698 5.16182 11.8511 5.0437 11 5.04163C8.60017 5.04163 6.44234 6.00504 4.88767 7.19854C4.1085 7.79621 3.46959 8.45988 3.02134 9.10521C2.58134 9.73954 2.29167 10.405 2.29167 11C2.29167 11.5949 2.58226 12.2604 3.02134 12.8938C3.45754 13.506 3.97291 14.0577 4.554 14.5346C4.59749 14.5706 4.65286 14.5889 4.7092 14.586C4.76554 14.5831 4.81875 14.5592 4.85834 14.519L7.55334 11.824C7.58021 11.7967 7.60008 11.7632 7.61125 11.7265C7.62243 11.6898 7.62457 11.6509 7.61751 11.6132C7.51817 11.0665 7.55284 10.5039 7.71854 9.97353C7.88425 9.44317 8.17605 8.96088 8.56895 8.56798C8.96185 8.17508 9.44413 7.88328 9.97449 7.71758C10.5049 7.55188 11.0675 7.51721 11.6142 7.61654" fill="#949494"/>
</svg>
