<svg width="64" height="64" viewBox="0 0 64 64" fill="none" xmlns="http://www.w3.org/2000/svg">
<g clip-path="url(#clip0_1_476)">
<mask id="mask0_1_476" style="mask-type:luminance" maskUnits="userSpaceOnUse" x="0" y="0" width="64" height="64">
<path d="M64 0H0V64H64V0Z" fill="white"/>
</mask>
<g mask="url(#mask0_1_476)">
<path d="M31.9977 0C14.3279 0 0 14.3279 0 32.0023C0 49.6767 14.3279 64 31.9977 64C34.8243 64 37.5674 63.6332 40.1804 62.9416C37.869 63.5218 35.4462 63.8282 32.9538 63.8282C24.7571 63.8282 17.3356 60.5049 11.9655 55.135C11.6081 55.0793 11.1857 54.9354 11.2786 54.6847L11.3017 54.6569C11.3389 54.6244 11.3807 54.6012 11.4317 54.5826C6.368 49.259 3.26289 42.0602 3.26289 34.1327C3.26289 17.7347 16.5558 4.4418 32.9538 4.4418C49.3518 4.4418 62.6495 17.7347 62.6495 34.1327C62.6495 44.3809 57.4557 53.4177 49.556 58.7553C58.2586 53.037 64 43.188 64 32.0023C64 14.3279 49.6721 0 31.9977 0Z" fill="#0088FF"/>
<path d="M22.7428 7.52819C19.5217 7.99693 18.2731 9.54715 18.055 10.9349C17.8786 12.0628 18.5934 13.8729 20.2086 12.9586C19.3407 11.0695 20.4035 8.67924 22.9238 8.08048C23.7918 7.87627 25.2352 7.95515 26.4884 8.08048L24.6829 12.2253C24.5483 12.6522 24.2652 12.8147 23.8985 12.8239L22.5989 12.7683C23.2951 11.3666 24.3534 9.93702 25.7133 8.47965C23.5922 8.81382 22.209 10.7261 21.0626 13.1303C20.2225 14.5088 19.2107 15.7063 17.8601 16.5556C17.4098 16.7831 16.8389 16.862 16.2309 16.8852L16.2542 16.3978C16.2913 15.6738 15.6786 15.0286 14.9592 15.1307C14.6111 15.1771 14.3836 15.3675 14.3279 15.7341C14.2166 16.4582 15.1959 17.1126 15.6833 17.2333C16.5698 17.4468 18.1849 17.1962 19.2571 16.5046C20.32 15.7295 21.2993 14.6063 22.2229 13.2278L24.2187 13.3113C24.2187 13.3113 23.7221 15.1122 23.7314 15.7248C23.7314 15.762 23.7314 15.8084 23.7407 15.8548C23.8428 16.7088 24.6921 17.2658 25.5323 17.0987L26.7251 16.862C26.3167 16.0961 26.5162 14.6109 26.7251 13.9054C27.2078 12.281 29.3289 7.64421 29.3289 7.64421C29.3289 7.64421 24.3719 7.29144 22.7381 7.53281L22.7428 7.52819Z" fill="#0088FF"/>
<path d="M33.4318 12.3785C33.3808 13.0422 33.8403 13.5389 34.1884 13.5574C35.3209 13.6131 35.3395 12.592 35.2699 12.1557C35.1538 11.4317 34.0027 11.4781 33.6129 11.6637C33.0374 11.933 32.5546 13.2743 32.0812 13.7013C31.8678 13.8963 31.385 13.9891 30.958 13.9659L31.4221 12.3089C31.5289 11.7241 30.9302 11.3806 29.9462 11.4131C29.807 11.4131 29.6677 11.4363 29.5331 11.4688C28.7673 11.6498 28.4145 11.9701 28.3495 12.3785C28.6048 12.23 28.7626 12.23 28.7719 12.4621C28.809 13.5853 28.0711 15.3769 27.2542 17.2334C28.0711 17.3216 28.7534 17.2891 29.2639 17.0895C29.728 16.9085 30.039 16.4768 30.1458 15.9942C30.2432 15.5439 30.4196 14.8477 30.6099 14.6064C30.7723 14.4022 31.1483 14.2583 31.5521 14.2258C31.7424 14.2119 31.8956 14.3789 31.8817 14.5693C31.8399 15.1216 31.6728 15.7296 31.4825 16.3423C31.3293 16.8528 31.5521 17.0663 31.747 17.1267C32.4618 17.3494 33.961 17.1777 34.6804 16.5651C34.3694 16.5651 34.026 16.6161 34.0909 16.3283L34.62 14.7735C34.7175 14.4115 34.4391 14.2583 33.9331 14.2258L32.6568 14.1423C32.4758 14.119 32.4943 14.0169 32.5361 13.9287L33.4318 12.3739V12.3785Z" fill="#0088FF"/>
<path d="M39.5631 14.1285C39.5631 14.1285 40.445 13.9846 40.7374 13.8361C41.053 13.6736 41.6007 13.1445 41.3594 12.4622C41.1923 12.1049 40.8674 11.8914 40.5147 11.7567C39.6049 11.4086 38.6117 11.4179 37.7298 11.8357C35.8919 12.7082 34.7872 14.1285 35.126 16.0454C35.2885 16.969 37.0011 17.3264 37.7252 17.345C38.5189 17.3682 40.0877 17.2475 40.8349 16.6905C41.2294 16.4399 41.378 16.0454 41.2155 15.442C40.9788 14.7226 40.6307 14.4441 39.5631 14.1285ZM37.5952 16.8994C37.1125 16.5373 37.3538 14.7226 37.9201 14.5184C38.3239 14.3745 39.1083 14.7458 39.0248 15.8133C38.9458 16.8437 37.9526 17.1686 37.5952 16.8994ZM39.1501 13.6597C38.8391 13.8639 38.4863 13.966 38.1058 13.9846C37.8737 13.9939 37.6834 13.7943 37.7391 13.5669C37.8412 13.1399 38.2682 12.5179 38.6952 12.1513C39.0805 11.8171 39.6792 12.077 39.6792 12.5875C39.6839 12.815 39.6189 13.047 39.4935 13.2791C39.4146 13.4323 39.2986 13.5669 39.1501 13.6597Z" fill="#0088FF"/>
<path d="M46.6458 12.2718C46.488 11.7519 45.4252 11.4827 44.8496 11.5245C44.0096 11.5848 42.8585 12.0489 42.0416 13.395C41.6471 14.0494 41.3501 15.5022 41.8281 16.4815C41.9395 16.7135 42.1298 16.9038 42.3526 17.0291C42.9235 17.3587 43.5779 17.4562 44.2184 17.1684C44.3066 17.1312 44.418 17.0895 44.5805 16.9224L45.7315 15.7806C45.9172 15.6274 46.0378 15.8827 46.0285 16.2958C46.0193 16.7368 46.2978 17.1452 46.7341 17.2241C47.3421 17.3401 47.9826 17.2334 48.6509 16.9503C48.3771 16.6903 48.1357 16.4629 48.3122 15.7249L49.5096 11.7287C48.4189 11.4827 47.4396 11.5848 46.6458 12.2718ZM45.6944 15.3304C45.4762 15.6692 45.2349 16.0034 44.6779 16.4397C44.4412 16.6254 44.0931 16.5 44.0235 16.2076C43.9539 15.9106 43.9353 15.5764 43.9817 15.1912C44.2416 13.4135 45.7733 11.181 46.4463 12.4156C46.6645 12.8148 46.3117 14.3696 45.6944 15.3304Z" fill="#0088FF"/>
<path d="M4.65994 33.8727C3.9823 32.4293 4.67386 31.2364 5.36079 30.9255C6.54896 30.387 8.60046 30.8558 10.5823 31.009L10.9676 29.9322L6.8321 29.8208C5.4629 29.8626 4.59961 30.6702 4.22829 31.3292C3.89875 31.9141 3.8245 33.1951 4.43251 33.998L4.6553 33.8774L4.65994 33.8727Z" fill="#0088FF"/>
<path d="M8.84182 31.4687C8.00171 31.8957 7.60722 32.6615 7.24982 33.4552C7.24982 33.4552 6.80888 34.7409 6.60929 35.1447C6.52574 35.3164 6.30298 35.6459 6.14517 35.7573C5.91308 35.9198 4.77595 36.189 5.00802 35.7944C5.24937 35.6784 5.4211 35.4324 5.4211 35.1447C5.4211 34.7455 5.0962 34.4252 4.70168 34.4252C4.30717 34.4252 3.98227 34.7502 3.98227 35.1447C3.98227 35.2561 4.00547 35.3721 4.03333 35.451C4.20041 35.9337 5.29114 36.7413 6.68354 36.0265C7.2916 35.7759 7.80674 35.3628 8.17344 34.6991C8.38695 34.2257 8.554 33.6687 8.69788 33.0514C8.81859 32.4526 8.94855 31.8957 9.09705 31.5708C9.15276 31.4408 9.02742 31.3991 8.84645 31.4641L8.84182 31.4687Z" fill="#0088FF"/>
<path d="M10.2018 35.2976L12.0258 30.8048C12.0258 30.6933 10.8005 31.06 10.3132 31.8258C9.79329 32.963 9.34772 34.0537 9.03211 35.047C8.83252 35.85 9.01356 36.3141 9.59377 36.4208C10.0161 36.5276 10.355 36.4208 10.6334 36.1609C10.1693 36.1702 10.044 35.8685 10.2018 35.2976Z" fill="#0088FF"/>
<path d="M14.7874 32.9679C14.5322 32.8333 14.0541 32.8889 13.6271 32.9493L13.6921 32.5919L12.3925 32.8936L10.7541 37.897L12.179 37.4607L12.4946 36.3189C13.5853 36.1519 14.5507 35.8176 15.0984 34.9126C15.6415 33.9286 15.2237 33.1906 14.7874 32.9679ZM14.0402 34.597C13.7663 35.516 13.2604 35.9477 12.5874 36.0358L13.525 33.1535C14.1794 33.1024 14.2908 33.6502 14.0402 34.597Z" fill="#0088FF"/>
<path d="M18.8672 32.5454L18.793 32.5269C17.4841 32.3227 14.4951 35.0472 16.2727 36.1657C17.563 36.9733 18.793 35.3674 19.2246 34.3556C19.4149 33.7893 19.7537 32.7729 18.8672 32.5454ZM18.6166 33.8497L18.6073 33.9332C18.5702 34.5087 17.8647 36.407 17.0896 35.8919C17.0339 35.8594 16.9921 35.8037 16.9735 35.7433C16.9225 35.5577 16.9596 35.3117 17.0014 35.1168C17.2427 34.2721 17.4516 33.3809 17.939 32.9446C18.5609 32.3923 18.6676 33.3531 18.6166 33.8497Z" fill="#0088FF"/>
<path d="M21.9119 33.1627L20.8351 35.0843C20.798 35.1492 20.5242 35.6969 20.3989 35.7944C20.3432 35.8361 20.2225 35.8965 20.2086 35.7758C20.3292 35.4277 20.3525 35.126 20.2086 34.9125C19.9579 34.6062 19.6701 34.6015 19.3592 34.829C18.8069 35.2699 19.3221 36.1471 19.9672 36.1564C20.125 36.1564 20.4406 36.1564 20.5752 35.9846L21.0162 35.2003L21.7866 33.7707C21.9769 33.4226 22.2368 33.1163 22.5478 32.8749L21.7077 35.0749C21.5871 35.5484 21.7031 35.9336 22.2508 36.1517C22.4271 36.2121 22.6267 36.1564 22.7474 36.1007C22.8356 36.045 22.9331 35.9661 23.0584 35.7201L24.2651 33.3715C24.4229 33.1256 24.6086 32.9446 24.8267 32.8378C24.7896 33.172 24.3672 34.2117 24.0423 35.0843C23.9588 35.4834 24.0563 35.799 24.4647 35.98C24.9149 36.1889 25.2723 36.1332 25.5322 35.7897C25.1888 35.7155 25.1284 35.4741 25.277 35.1121L25.9964 33.1488C26.117 32.745 25.6807 32.3876 25.1052 32.4851C24.7061 32.5825 24.3672 32.8053 24.1305 33.223L22.8727 35.7944C22.7799 35.9429 22.6035 35.9707 22.6685 35.7201L23.671 33.3066C23.8149 32.9307 23.4575 32.5036 22.8077 32.5408C22.4782 32.5825 22.0976 32.9074 21.9212 33.1673L21.9119 33.1627Z" fill="#0088FF"/>
<path d="M11.3018 54.657L11.2786 54.6849C11.1858 54.9355 11.6081 55.0794 11.9655 55.1351C11.7845 54.954 11.6035 54.7684 11.4318 54.5828C11.3807 54.6013 11.339 54.6245 11.3018 54.657Z" fill="#0088FF"/>
<path d="M20.241 53.7656C23.1883 54.0442 26.2934 56.5459 29.3428 55.3855C30.4846 54.8193 28.3959 55.121 28.0896 55.0281C26.971 54.9724 26.117 54.4108 25.1052 53.9188C23.8567 53.2922 22.868 52.7631 21.6474 52.3408C21.29 52.1876 20.5335 52.0948 20.6495 51.5935C20.7237 51.3057 21.2482 50.7534 21.2993 50.5399C21.4014 50.1315 20.3896 51.0504 20.2271 51.1155C18.7094 52.0901 16.8436 52.5079 15.1726 52.0344C12.8984 51.5332 11.506 48.7297 12.8658 46.7386C13.7988 45.1466 16.1566 44.7753 17.368 46.2652C18.1106 47.1378 17.9343 48.6323 17.1684 49.1475C16.6672 49.5327 15.9153 49.4724 15.3722 49.7323C14.7735 50.0247 15.2701 50.5956 15.7064 50.7163C16.3887 50.9669 17.2009 50.7627 17.8043 50.2846C18.106 50.0665 18.4123 49.7694 18.7744 49.7694C19.076 49.7741 19.4288 49.8808 19.6562 49.6163C20.1064 49.1985 20.0136 47.9361 20.2689 47.6855C20.32 47.6298 20.3803 47.6158 20.4499 47.6437C20.6077 47.7086 20.7748 48.0057 20.914 48.3585C22.1672 51.626 25.2723 54.0163 28.8601 54.2159C31.0926 54.3969 33.9053 54.123 35.1259 52.9441C35.3023 52.6471 33.7057 53.283 33.404 53.2737C30.7491 53.7796 27.6951 53.1901 25.5786 51.4542C22.5524 48.934 22.2693 44.107 26.052 42.1437C29.0086 40.3845 33.1952 42.8816 32.2529 46.4416C31.8445 48.2146 29.8116 49.2218 28.1824 48.3585C27.5837 48.0707 26.4094 47.588 26.2887 48.5952C26.2795 50.1408 28.02 50.9901 29.533 50.6838C30.1133 50.6142 30.6981 50.3032 31.2411 50.1825C31.4593 50.1454 31.6078 50.1825 31.7053 50.2893C31.8723 50.4749 31.9466 50.8184 32.174 50.9623C32.4247 51.134 32.8795 51.0319 33.1765 50.8926C33.3576 50.8138 33.5293 50.707 33.6825 50.5863C34.2998 50.1547 34.5968 49.1754 35.0702 49.115C35.423 49.0732 35.7154 49.3981 35.9474 49.658C36.9872 50.7627 37.1124 52.0855 37.0242 53.4826C37.0336 54.4619 37.2099 55.3948 36.7922 56.2627C36.6205 56.6387 36.3884 57.0053 36.2399 57.3952C35.6272 58.8944 37.1542 59.4933 38.3053 58.848C39.5956 58.2167 40.7513 57.437 41.9256 56.6016C43.4062 55.6083 44.8635 53.9095 46.5484 53.1437C48.7994 52.0715 52.2666 52.3686 54.4898 51.1108C57.4835 49.5049 59.9525 44.288 59.4838 40.8858C59.2565 38.1242 57.7991 35.836 56.5227 33.3575C56.0353 32.355 55.7429 30.8094 55.1163 29.7512C54.0488 28.1313 53.0045 26.284 51.6817 24.9845C50.8881 24.2883 49.737 24.7895 48.883 25.1655C47.6437 25.7085 46.2189 26.052 44.6547 26.3119C42.9792 26.725 41.3732 25.922 39.7905 25.495C36.7597 24.5667 33.158 24.0516 30.0715 23.9633C28.7812 24.0516 24.2373 23.179 24.6736 25.4022C24.8407 25.9545 25.458 26.3768 25.7086 26.8781C25.7271 26.9292 25.7318 26.9803 25.6761 26.9941C25.4904 27.0685 24.6643 26.5115 24.0841 26.6461C23.5086 26.725 23.1697 27.2866 23.2254 27.8482C23.3786 29.2778 24.6642 30.336 25.5972 31.32C27.7925 33.4596 30.2247 35.5436 32.7681 37.0938C34.1559 37.9061 36.4209 39.2428 37.6973 39.9947C38.0453 40.2036 38.2821 40.3057 38.5095 40.5934C39.0386 41.401 39.5492 42.747 40.3382 43.5871C41.2897 44.5339 42.5661 45.6154 43.9678 45.4993C44.7243 45.4298 45.2349 44.65 45.8429 44.6453C46.1956 44.6268 46.5298 44.8264 46.7805 45.0677C48.3539 46.6829 45.6804 48.572 44.0838 47.9221C42.4129 47.3374 40.3336 46.1677 38.7787 45.7315C38.4167 45.62 38.0593 45.6386 37.7019 45.5829C37.1264 45.4854 36.6622 44.9517 36.4302 44.4272C36.0125 43.68 36.8664 43.3133 36.8107 42.5614C36.6669 41.7445 35.9846 40.9972 35.3766 40.4078C31.4221 36.5322 23.7082 37.4141 21.4338 42.6496C21.0347 43.2669 21.0208 44.4551 20.4035 44.831C19.8883 45.0074 19.6145 44.3483 19.5077 43.9538C19.2617 43.1369 18.3566 42.8631 17.6001 42.6496C14.2351 41.6145 10.508 44.5803 10.3224 47.8293C10.2017 50.1222 11.8401 52.4986 14.1794 53.0555C14.6389 53.1855 14.9777 53.3062 15.0009 53.4733C15.0195 53.7192 14.6203 53.8956 14.4254 54.0024C13.6642 54.3876 12.7916 54.4944 11.933 54.4897C11.7705 54.4944 11.5756 54.5176 11.4317 54.5825C11.6034 54.7682 11.7844 54.9539 11.9655 55.1349C12.0397 55.1488 12.1093 55.1581 12.1743 55.1627C14.9824 55.4923 17.4237 53.5893 20.241 53.7656ZM45.6247 26.8503C47.356 26.7111 48.5581 26.0056 50.1918 25.8478C51.032 25.8339 51.5796 26.4836 52.0948 27.0685C54.1092 29.1617 55.0885 31.6727 56.4299 34.1605C56.7223 34.7917 56.4763 34.7778 55.859 34.2951C54.6801 33.3621 53.4687 32.0115 52.3269 30.9486C49.9366 28.6279 46.8269 28.3077 43.8981 27.2402V27.2216C44.2695 26.9524 45.1142 26.971 45.6155 26.8503H45.6247ZM39.9437 26.8225C40.9648 27.0267 43.9445 27.9457 43.9445 27.9457C46.0239 28.5027 48.1172 29.2267 49.4353 29.8394C50.6189 30.3917 52.2202 31.3571 53.7889 32.7309C54.5826 33.4364 55.3763 34.3275 56.1607 35.4276C57.14 36.9546 57.943 38.7786 58.3514 41.2525C58.6949 43.1508 58.0729 44.5989 57.2282 45.9403C58.1101 44.1023 58.0776 41.7816 57.6645 40.4635C57.3025 39.3124 56.648 37.5905 55.743 36.0403C54.2299 33.6963 51.2455 31.5381 49.3703 30.6052C46.4091 29.1339 40.7513 27.3933 36.82 26.4372C36.82 26.4372 39.1778 26.66 39.953 26.8178L39.9437 26.8225ZM52.9953 34.9866C53.1995 34.852 53.5708 35.0563 53.8261 35.4415C54.0813 35.8267 54.1231 36.2491 53.9143 36.3837C53.7101 36.5183 53.3387 36.3141 53.0835 35.9288C52.8282 35.5436 52.7864 35.1213 52.9953 34.9866ZM52.2898 34.5225C51.9788 34.4853 51.7421 34.3229 51.7607 34.1558C51.7792 33.9888 52.0484 33.8867 52.3594 33.9237C52.6704 33.9609 52.9071 34.1233 52.8885 34.2904C52.8699 34.4575 52.6007 34.5596 52.2898 34.5225ZM51.1016 35.1213C50.9345 35.2187 50.7535 35.2234 50.7024 35.1352C50.6513 35.0469 50.7442 34.8938 50.9159 34.7963C51.083 34.6989 51.264 34.6942 51.3151 34.7824C51.3661 34.8706 51.2733 35.0238 51.1016 35.1213ZM49.6952 32.6195C49.5745 32.7402 49.2961 32.652 49.0733 32.4292C48.8505 32.2065 48.7623 31.928 48.883 31.8073C49.0037 31.6866 49.2821 31.7748 49.505 31.9976C49.7277 32.2204 49.8159 32.4989 49.6952 32.6195ZM49.7602 36.9175L45.1652 34.0909C46.8779 34.7221 48.4142 35.655 49.7602 36.9175ZM45.4808 33.7056C47.1936 34.3368 48.7299 35.2698 50.0758 36.5322L45.4808 33.7056ZM49.3889 37.4141L44.9982 34.2765C46.6644 35.0238 48.1311 36.0588 49.3889 37.4141ZM48.6927 37.5765L44.7197 34.5271C46.242 35.2744 47.5695 36.2816 48.6927 37.5765ZM48.145 37.7344L44.7847 34.9124C46.0889 35.6225 47.2121 36.5601 48.145 37.7344ZM47.5463 37.8782L44.3576 34.8613C45.6155 35.6503 46.6876 36.6483 47.5463 37.8782ZM46.6273 37.6369L44.1256 35.1026C45.1885 35.7803 46.0332 36.6204 46.6273 37.6369ZM44.404 30.6516C44.5248 30.5309 44.8032 30.6191 45.026 30.8418C45.2488 31.0647 45.337 31.3431 45.2163 31.4638C45.0956 31.5845 44.8171 31.4963 44.5944 31.2736C44.3716 31.0507 44.2834 30.7723 44.404 30.6516ZM45.1374 30.2432C44.7661 29.9646 44.5851 29.5841 44.7336 29.3845C44.8821 29.1895 45.2999 29.2545 45.6712 29.533C46.0424 29.8115 46.2235 30.1921 46.075 30.3917C45.9264 30.5866 45.5087 30.5216 45.1374 30.2432ZM45.8568 31.2967C46.0053 31.1018 46.4231 31.1668 46.7944 31.4453C47.1657 31.7237 47.3467 32.1043 47.1982 32.3039C47.0497 32.5035 46.6319 32.4339 46.2606 32.1554C45.8893 31.8769 45.7083 31.4963 45.8568 31.2967ZM42.8817 30.0018C42.7332 30.1968 42.3155 30.1317 41.9441 29.8533C41.5728 29.5748 41.3918 29.1942 41.5403 28.9946C41.6888 28.7997 42.1066 28.8647 42.4779 29.1431C42.8492 29.4216 43.0302 29.8022 42.8817 30.0018ZM40.2872 29.649C40.3893 29.5144 40.677 29.5608 40.9323 29.7512C41.1876 29.9415 41.3129 30.206 41.2108 30.3406C41.1087 30.4752 40.8209 30.4288 40.5656 30.2385C40.3104 30.0482 40.185 29.7837 40.2872 29.649ZM39.8694 28.7208C39.8694 28.5537 40.1247 28.4144 40.445 28.4144C40.7652 28.4144 41.0205 28.5491 41.0205 28.7208C41.0205 28.8925 40.7652 29.0271 40.445 29.0271C40.1247 29.0271 39.8694 28.8925 39.8694 28.7208ZM39.2753 29.1664C39.2753 29.3334 39.02 29.4727 38.6998 29.4727C38.3796 29.4727 38.1243 29.3381 38.1243 29.1664C38.1243 28.9946 38.3796 28.86 38.6998 28.86C39.02 28.86 39.2753 28.9946 39.2753 29.1664ZM30.1318 34.2115C29.6398 33.8263 29.0782 32.963 28.7023 32.1739L28.6651 32.1229C29.2964 32.9723 29.923 33.752 30.5449 34.4204C30.5449 34.4204 30.22 34.2858 30.1318 34.2162V34.2115ZM33.2276 33.4179C32.5407 33.4272 31.8816 33.325 31.2643 33.0651C32.7031 32.8841 33.882 32.4478 33.9842 30.9162C34.2673 31.4128 34.4298 31.9604 34.4344 32.5731C34.4529 33.2368 33.9981 33.4689 33.2322 33.4132L33.2276 33.4179ZM34.8846 33.5524H35.4509C35.3394 33.7242 34.9217 33.8727 34.7221 33.8913C34.5597 33.9052 34.0677 33.8402 34.0677 33.8402C34.2905 33.6499 34.555 33.5432 34.88 33.5571L34.8846 33.5524ZM33.4504 34.7731C32.5871 34.6757 31.5567 34.1883 30.1921 32.898C31.3943 33.6963 32.5128 34.3693 33.4504 34.7731ZM32.4757 34.9727C32.2251 34.9727 31.9373 34.9263 31.5614 34.736C30.763 34.2161 30.0297 33.4085 29.3149 32.5313C30.4613 33.571 31.5938 34.5735 32.4757 34.9727ZM40.6771 41.3407C41.6935 42.3896 42.3897 43.5361 42.7425 44.7938L40.6771 41.3407ZM41.48 41.8651C42.3201 42.6496 42.9142 43.5268 43.2344 44.4968L41.48 41.8651ZM41.8606 41.9255C42.7703 42.631 43.4387 43.4479 43.8471 44.3854L41.8606 41.9255ZM42.9838 42.6171C43.7496 43.1741 44.2602 43.7588 44.4969 44.3808L42.9838 42.6171ZM43.8703 42.8584C44.5248 43.3875 44.9378 43.8517 45.0864 44.2508L43.8703 42.8584ZM42.7425 49.6627C42.8167 49.6163 42.9049 49.3656 42.9049 49.3656C43.3829 49.5513 43.7218 49.4445 43.9028 48.9804C44.729 49.0732 45.4902 49.0361 46.1121 48.7251C46.5716 48.8829 46.9243 48.7808 47.0497 48.1357L49.556 46.3023C49.7649 46.1863 49.8206 46.1352 50.0155 46.1538C50.2058 46.1723 50.3868 46.2513 50.5492 46.3859L50.6328 46.2837L44.8311 42.9512L40.6863 40.7698L35.0888 37.6833L31.1297 35.1398L32.1415 35.3162C32.4061 35.4229 32.6567 35.2651 32.9074 35.0795C33.3483 35.2141 33.6871 35.0934 33.947 34.7824C34.3323 34.7778 34.634 34.6153 34.8428 34.2858C35.2931 34.2533 35.5437 33.9888 35.669 33.5757C36.4951 32.782 36.4951 32.1043 36.4998 31.4221C36.4998 31.4221 36.4905 29.9275 36.3791 29.4448C36.2817 29.0132 35.8686 28.201 35.5947 27.8482C35.4694 27.5883 35.3301 27.3608 35.1352 27.2309C35.0006 27.1706 34.8707 27.1566 34.7593 27.2402C34.5968 27.3376 34.555 27.5186 34.5643 27.7322C34.5876 27.9039 34.6897 28.0571 34.8521 28.1917C34.9449 28.2474 35.0656 28.2381 35.1909 28.2102C35.3116 28.2056 35.3905 28.1127 35.4322 27.9596C35.8964 28.6605 36.161 29.4587 36.1099 30.4102C36.0867 31.5149 35.9985 32.4849 35.669 32.9769C35.423 33.209 35.1352 33.3157 34.7871 33.2461C34.9032 32.5221 34.7639 31.617 34.6015 31.1111C34.5365 30.8558 34.309 30.0946 34.309 30.0946L34.2533 29.0643C34.2533 29.0643 34.3972 28.4748 34.3972 28.2752C34.3926 27.9039 34.1652 27.1009 33.9006 26.8735C33.9795 27.2216 34.0213 27.528 33.947 27.695C33.5247 27.9085 33.4225 28.1824 33.7474 28.5491C33.8681 28.6048 33.9146 28.7254 33.9006 28.8971C33.1255 29.2313 33.1394 29.6629 33.6268 30.1596C33.65 31.3339 32.6382 32.3086 31.9419 32.4803C31.2411 32.6567 29.7652 32.2575 29.0875 32.0022C28.7301 31.8676 28.2196 31.6123 27.7137 31.3385C27.9457 31.6634 28.1917 31.9465 28.498 32.0858C28.6373 32.4896 28.8601 32.9584 29.12 33.4643C27.593 32.1972 26.1263 30.9672 25.3048 30.1085C24.8221 29.533 24.3812 28.9761 24.1398 28.5212C23.982 28.2891 23.8752 28.0292 23.8567 27.7182C23.8752 27.4954 23.9588 27.398 24.1816 27.5651L24.5157 28.0849C24.8592 28.3773 25.3094 28.6651 26.0753 28.9435L27.1103 29.6676C27.0731 29.598 26.7715 29.0596 26.5533 28.9435C26.3213 28.8136 25.1748 28.1824 25.1748 28.1824L24.5436 27.5651C24.9845 27.89 25.4208 28.1917 25.7921 28.2798L26.8875 28.7022L27.5512 29.7837C27.6811 30.0064 27.8343 30.1875 28.0246 30.3035C28.382 30.4891 28.6327 30.3777 28.7858 29.9646C28.8833 29.7929 28.888 29.4309 28.8647 29.0178C28.7487 28.498 28.563 28.0339 28.266 27.6486C27.9225 27.1473 27.5326 26.6925 27.0871 26.3026C26.7575 25.9963 26.4327 25.8152 26.1124 25.6574L27.6394 27.268C27.9968 27.6208 28.1824 28.0199 28.2567 28.4562L27.412 27.203L27.3377 27.2309C27.7554 28.0942 28.1685 28.9575 28.1546 29.5237C28.2103 29.8904 28.0896 29.844 27.8715 29.5608L26.906 27.4351L26.4883 26.4233L25.8339 25.8431L25.4023 25.4022C25.2676 25.1701 25.3373 24.9752 25.6343 24.8313C26.493 24.8405 27.2773 24.9009 27.8436 25.0866C27.8436 25.0866 28.3031 25.2258 28.3959 25.3465C28.4609 25.4347 28.3541 25.6714 28.3124 25.7688C28.2613 25.8896 28.1592 26.1495 28.2103 26.284C28.2103 26.284 28.7626 25.6343 29.004 25.4996C29.1943 25.3883 29.5888 25.3511 29.8858 25.4578C30.1643 25.5553 30.3917 25.7364 30.5867 25.9638C30.6981 26.1541 30.763 26.4047 30.8094 26.6693C30.9672 26.7389 31.0786 26.4883 31.0647 26.3955C31.0229 26.1541 30.7955 25.6574 30.7677 25.5971C31.2225 25.7828 31.6542 25.8617 32.0858 25.8896L32.2436 26.2747C32.3736 26.4697 32.6103 26.3861 32.666 26.2933C32.7031 26.2237 32.666 25.973 32.666 25.973C32.8331 26.0612 32.9909 26.0891 33.1301 26.0427C33.0095 26.2144 32.9723 26.4836 33.0373 26.6136C33.1116 26.7528 33.5015 26.9988 33.6639 26.6229C33.701 26.4604 33.65 26.3119 33.5432 26.1726L34.6757 26.66C35.1909 26.9571 35.6922 27.3748 36.1842 28.0153C36.5277 28.4469 36.7458 29.1153 36.9036 29.8951C36.9778 30.7769 37.0057 31.5381 36.9036 32.0022C36.8293 32.4896 36.7133 32.9305 36.5369 33.3111C36.4302 33.5617 36.4069 33.8402 36.4441 34.1326C36.5137 34.3647 36.6158 34.555 36.7551 34.7035C36.885 34.8427 36.9454 35.033 36.9454 35.2234C36.9454 35.3672 36.9314 35.5204 36.9036 35.6782C37.0893 35.4276 37.2331 35.1491 37.1774 34.736C37.1217 34.3739 37.0568 34.0676 36.8154 33.8727L37.0242 33.4828C37.2424 33.0558 37.3956 32.5406 37.4745 31.928L37.5209 30.6098L40.1711 31.3478C40.1711 31.3478 40.2593 31.7795 40.3661 31.914C40.5471 32.1461 40.9741 32.225 41.1319 32.0022C41.1923 31.9233 41.2665 31.6356 41.2665 31.6356L42.1716 31.9094C42.1716 31.9094 42.2551 32.1275 42.3061 32.1879C42.4918 32.4385 42.7889 32.4756 42.9328 32.3039C42.9559 32.2668 42.9977 32.1415 42.9977 32.1415C42.9977 32.1415 43.5825 32.3643 43.7543 32.4803C44.1998 32.782 44.2788 33.2461 44.2788 33.6499C44.2741 34.0537 44.0931 34.2904 43.7079 34.3322C43.1463 34.4111 42.5939 34.3832 42.0416 34.2487L44.3623 35.9892C44.7614 36.2491 45.0864 36.625 45.3463 37.1217C45.4344 37.312 45.6944 37.4837 46.0193 37.6554C46.4741 37.8411 47.0543 37.9525 47.7783 37.985C47.7783 37.985 49.491 37.9664 50.0619 37.9246C50.3729 37.9061 51.0552 37.8179 51.2779 37.674C51.5889 37.5255 51.7003 37.312 51.4311 36.9639L50.0805 35.8499C49.3982 35.4229 48.7438 35.0191 48.1821 34.6989L45.3277 33.1719L44.4551 32.6474C45.9357 33.0929 47.4256 33.6824 48.9201 34.4065C50.0666 35.0841 51.1201 35.9335 52.0855 36.9453C51.8674 37.2656 51.691 37.7715 51.7003 37.9571C51.7143 38.2681 51.9185 38.4862 52.3176 38.5048C52.61 38.5234 52.8606 38.4027 53.0742 38.1892C53.7843 39.1685 54.4573 40.1386 54.8472 41.0343C54.7079 41.0065 54.5965 41.0343 54.5269 41.1457C54.448 41.3825 54.5083 41.5821 54.6847 41.7445C54.8333 41.8977 55.0468 41.9533 55.2928 41.9487C55.4134 42.1947 55.5109 42.3757 55.3995 42.4824C55.3392 42.5382 55.1813 42.5289 55.1349 42.6542C55.0096 43.0023 55.1813 43.1462 55.302 43.2529C55.3949 43.3319 55.7523 43.42 55.7523 43.42L55.9704 44.0744C56.0632 44.4875 56.091 44.9099 56.0632 45.3462C56.0632 45.3462 55.8544 45.3323 55.7893 45.3462C55.613 45.3972 55.6501 45.6061 55.7708 45.7593C55.8126 45.8103 55.9611 45.9449 55.9611 45.9449C55.9332 46.7896 55.7569 47.5137 55.4088 48.0986C54.7404 47.9361 54.0071 47.7504 53.2041 47.5555C52.8885 47.4766 52.8096 47.4441 52.2387 47.4441C52.0577 47.4395 52.002 47.458 51.7096 47.472C51.5193 47.5044 51.3012 47.6112 51.2408 47.7272C51.1805 47.8525 51.2872 48.0753 51.459 48.2517L53.5151 50.6281L50.0712 51.4682L46.2142 52.2387L45.1003 52.8931C45.1003 52.8931 44.5572 53.464 44.3159 53.5475C43.3737 53.8724 42.9467 53.4036 42.2458 52.5079C41.9117 52.0808 41.8745 51.5053 41.9209 50.9716C41.9209 50.9716 42.2504 50.8741 42.3433 50.8138C42.529 50.6931 42.6125 50.4285 42.3154 50.2707C42.2319 50.2243 41.9581 50.1593 41.9581 50.1593C42.0973 49.8901 42.2737 49.7137 42.5197 49.6813C42.5197 49.6813 42.696 49.6952 42.7425 49.6627ZM37.2099 47.5973C37.2517 47.2538 37.196 46.9011 37.3399 46.7154L37.3816 46.6644C38.3935 46.0749 39.6606 47.5369 40.6492 47.8107C40.8534 47.8943 41.053 47.9732 41.2618 48.0336C41.7863 48.2285 42.4361 48.1589 42.4222 48.3956C42.2226 48.9897 41.7585 49.5466 41.4568 50.1129C41.1319 50.7117 40.6724 51.1804 40.7513 51.8116C40.7838 52.1412 40.9601 52.3454 41.2572 52.6331C41.8096 53.2273 42.8307 54.0906 43.3133 54.7311C43.3598 54.8611 43.2298 54.9724 42.9745 55.1767C42.0091 55.8357 39.7859 58.2028 38.6766 56.8893C38.3006 56.0539 38.7555 54.8981 38.5374 54.0163C38.4724 53.7703 38.2728 53.5754 38.0964 53.3619C37.3816 52.4382 39.4564 52.4893 38.18 51.069C37.7623 50.4888 37.5673 49.8251 37.196 49.2218C36.8711 48.6787 37.131 48.1635 37.2099 47.5973Z" fill="#0088FF"/>
<path d="M49.6024 46.734C49.5375 46.7619 49.44 46.8222 49.375 46.8825L49.4725 46.8176L49.6024 46.734Z" fill="#0088FF"/>
<path d="M49.8391 47.4164C49.9227 47.3515 50.0433 47.1565 50.0619 47.0498C50.0944 46.8687 50.048 46.6506 49.8298 46.6784C49.788 46.6784 49.7509 46.6877 49.7138 46.697C49.6767 46.7063 49.6488 46.7156 49.621 46.7248C49.6163 46.7248 49.6117 46.7295 49.6024 46.7341L49.4724 46.8177L49.375 46.8827C49.375 46.8827 49.3518 46.9013 49.3425 46.9105C49.2357 47.0173 49.1197 47.2122 49.2218 47.4072C49.3843 47.6207 49.6581 47.5557 49.8391 47.4164Z" fill="#0088FF"/>
<path d="M13.3719 48.5534C13.4415 47.9361 14.1284 46.9614 15.1124 46.785C15.8133 46.6782 16.3795 46.9381 16.7833 47.6436C17.1082 48.3538 16.709 48.8179 15.6462 49.0593C16.3331 49.3563 17.2335 48.8087 17.4702 48.2888C17.7998 47.5648 17.317 46.2327 16.4723 45.931C15.9757 45.7499 15.0335 45.6107 14.3512 45.931C12.9727 46.6225 12.6711 47.7643 12.8335 49.1057C13.4693 50.9297 14.3883 51.6074 15.4744 51.6027C13.9149 50.9623 13.2651 49.477 13.3672 48.558L13.3719 48.5534Z" fill="#0088FF"/>
<path d="M25.4765 44.8451C26.0613 44.2325 27.4166 43.6708 28.7533 43.9818C29.6816 43.9725 30.3082 45.1422 30.401 45.7363C30.466 46.1726 30.2757 47.1937 29.8023 47.3886C29.3707 47.565 28.5398 47.6253 27.9411 47.3886C28.0757 47.9874 28.6419 48.2055 29.5609 48.1173C30.7305 48.1498 31.7842 47.0173 31.8259 45.7363C31.8584 44.7384 31.4825 43.4063 29.4495 42.5198C28.2706 42.1067 27.0778 42.2367 25.8757 42.97C24.4786 44.0051 24.033 45.4021 23.9495 46.9384C24.0748 48.8506 24.7107 50.1688 25.9314 50.7954C24.3487 49.338 23.9773 46.4186 25.4812 44.8451H25.4765Z" fill="#0088FF"/>
<path d="M36.5926 53.5848C34.8613 54.4899 32.9491 55.3393 31.6866 55.8127C29.9507 56.4671 26.8131 56.8477 24.46 55.8312C25.7642 56.9962 27.709 57.4186 30.2803 57.103C32.6474 56.676 34.7963 56.0076 36.5879 54.9494V53.5848H36.5926Z" fill="#0088FF"/>
<path d="M52.1087 41.3407C51.9695 41.5402 52.1598 41.9162 52.5404 42.1808C52.921 42.4453 53.3434 42.4964 53.4826 42.2968C53.6218 42.0926 53.4269 41.7166 53.0509 41.4521C52.6703 41.1875 52.2479 41.1364 52.1087 41.3407Z" fill="#0088FF"/>
<path d="M51.8813 40.0738C52.2619 40.3383 52.6842 40.3847 52.8235 40.1852C52.9628 39.9856 52.7678 39.605 52.3872 39.3404C52.0113 39.0805 51.5889 39.0294 51.4496 39.229C51.3057 39.4286 51.5007 39.8092 51.8813 40.0738Z" fill="#0088FF"/>
<path d="M51.0599 39.6839C51.2827 39.5817 51.3059 39.1548 51.1109 38.7371C50.9113 38.3193 50.5726 38.0641 50.3497 38.1662C50.127 38.2729 50.1084 38.6953 50.3033 39.113C50.4982 39.5353 50.8371 39.786 51.0599 39.6839Z" fill="#0088FF"/>
<path d="M54.0211 44.0003C53.8818 44.1998 54.0768 44.5804 54.4574 44.845C54.838 45.1096 55.2557 45.1606 55.3996 44.9564C55.5388 44.7568 55.3439 44.3762 54.9633 44.1116C54.5827 43.8517 54.165 43.8007 54.0211 44.0003Z" fill="#0088FF"/>
<path d="M48.456 48.4467C48.5396 48.572 48.7485 48.5812 48.9202 48.4652C49.0873 48.3492 49.1569 48.1543 49.0733 48.0289C48.9898 47.9036 48.7809 47.8943 48.6092 48.0104C48.4421 48.1264 48.3725 48.3213 48.456 48.4467Z" fill="#0088FF"/>
<path d="M47.5974 48.7763C47.7691 48.6602 47.8387 48.4653 47.7552 48.3353C47.667 48.21 47.4627 48.2054 47.291 48.3168C47.1193 48.4328 47.0497 48.6278 47.1332 48.753C47.2214 48.883 47.4256 48.8877 47.5974 48.7763Z" fill="#0088FF"/>
<path d="M46.3163 49.4401C46.4324 49.3612 46.4834 49.2266 46.4231 49.1384C46.3674 49.0503 46.2235 49.0456 46.1029 49.1245C45.9868 49.2034 45.9358 49.338 45.9961 49.4262C46.0564 49.5144 46.2003 49.519 46.3163 49.4401Z" fill="#0088FF"/>
<path d="M45.5181 50.2941C45.5784 50.4333 45.778 50.4751 45.9636 50.3915C46.1539 50.308 46.2514 50.1316 46.1911 49.9924C46.1307 49.8578 45.9311 49.8114 45.7455 49.8949C45.5552 49.9784 45.4531 50.1595 45.5181 50.2941Z" fill="#0088FF"/>
<path d="M45.3927 49.7323C45.5458 49.6673 45.6247 49.5235 45.5783 49.4121C45.5273 49.3006 45.3648 49.2682 45.2163 49.3331C45.0678 49.3981 44.9842 49.542 45.0353 49.6534C45.0817 49.7648 45.2441 49.7973 45.3927 49.7323Z" fill="#0088FF"/>
<path d="M43.1276 50.452C43.3365 50.387 43.4664 50.2153 43.4247 50.0621C43.3783 49.9089 43.1694 49.8347 42.9652 49.895C42.7563 49.96 42.6263 50.1317 42.6681 50.2848C42.7145 50.438 42.9234 50.5123 43.1276 50.452Z" fill="#0088FF"/>
<path d="M45.3787 51.4357C45.2209 51.4357 45.091 51.612 45.091 51.8255C45.091 52.039 45.2209 52.2201 45.3787 52.2201C45.5365 52.2201 45.6712 52.0437 45.6712 51.8255C45.6712 51.6074 45.5412 51.4357 45.3787 51.4357Z" fill="#0088FF"/>
<path d="M44.6036 50.7257C44.6361 50.8278 44.78 50.8789 44.9192 50.8371C45.0631 50.7953 45.1559 50.6747 45.1235 50.5679C45.0909 50.4611 44.9517 50.4147 44.8079 50.4565C44.664 50.4983 44.5711 50.6189 44.6036 50.7257Z" fill="#0088FF"/>
<path d="M44.3253 50.2939C44.2139 50.3264 44.1489 50.4192 44.1721 50.4982C44.1953 50.577 44.3021 50.6188 44.4088 50.5863C44.5202 50.5539 44.5898 50.461 44.562 50.3821C44.5387 50.3032 44.432 50.2614 44.3253 50.2939Z" fill="#0088FF"/>
<path d="M44.5526 50.0525C44.7846 49.9504 44.9053 49.7183 44.8218 49.5327C44.7382 49.3471 44.4876 49.282 44.2555 49.3841C44.0234 49.4909 43.9028 49.723 43.9863 49.9086C44.0698 50.0896 44.3205 50.1593 44.5526 50.0525Z" fill="#0088FF"/>
<path d="M43.5454 51.0413C43.7311 51.1388 43.9492 51.097 44.0281 50.9484C44.107 50.7953 44.0142 50.5957 43.8286 50.4982C43.6382 50.4007 43.4247 50.4425 43.3458 50.5911C43.2669 50.7442 43.3551 50.9438 43.5454 51.0413Z" fill="#0088FF"/>
<path d="M48.2889 49.1892C48.4606 49.0732 48.5303 48.8782 48.4467 48.7529C48.3585 48.6276 48.1543 48.6183 47.9826 48.7343C47.8109 48.8504 47.7412 49.0453 47.8248 49.1707C47.913 49.2959 48.1172 49.3052 48.2889 49.1892Z" fill="#0088FF"/>
<path d="M47.1796 49.8529C47.4813 49.6998 47.6669 49.4677 47.5973 49.3331C47.5277 49.1985 47.2307 49.2124 46.9336 49.3656C46.6319 49.5188 46.4462 49.7508 46.5159 49.8854C46.5855 50.0201 46.8825 50.0061 47.1796 49.8529Z" fill="#0088FF"/>
<path d="M48.4236 47.8433C48.6695 47.6763 48.8041 47.4349 48.7206 47.3096C48.6371 47.1843 48.3632 47.2214 48.1126 47.3885C47.8666 47.5556 47.732 47.7969 47.8156 47.9223C47.899 48.0476 48.1729 48.0104 48.4236 47.8433Z" fill="#0088FF"/>
<path d="M53.3341 42.9792C53.0509 42.7842 52.7121 42.7889 52.5682 42.9884C52.429 43.1926 52.545 43.5129 52.8281 43.7125C53.1113 43.9074 53.4547 43.9028 53.594 43.7032C53.7332 43.499 53.6172 43.1787 53.3341 42.9792Z" fill="#0088FF"/>
<path d="M49.0547 41.0855C49.3378 41.2805 49.6813 41.2805 49.8205 41.0763C49.9597 40.8767 49.8437 40.5518 49.5606 40.3569C49.2775 40.1619 48.9386 40.1619 48.7948 40.3661C48.6556 40.5657 48.7716 40.8906 49.0547 41.0855Z" fill="#0088FF"/>
<path d="M49.2775 39.5492C49.5328 39.7303 49.8438 39.7256 49.9691 39.5446C50.0944 39.3589 49.9923 39.0665 49.737 38.8902C49.4817 38.7138 49.1707 38.7185 49.0408 38.8994C48.9155 39.0805 49.0222 39.3729 49.2775 39.5492Z" fill="#0088FF"/>
<path d="M46.8269 38.7787C47.0868 38.9597 47.3792 38.9782 47.486 38.8297C47.5927 38.6765 47.4675 38.4074 47.2122 38.231C46.9523 38.05 46.6598 38.0268 46.5531 38.18C46.4464 38.3285 46.5716 38.5977 46.8269 38.7787Z" fill="#0088FF"/>
<path d="M43.0998 36.3884C43.3597 36.5695 43.6522 36.588 43.7589 36.4395C43.8657 36.2863 43.7403 36.0171 43.4851 35.8407C43.2251 35.6597 42.9328 35.6365 42.826 35.7897C42.7193 35.9382 42.8445 36.2074 43.0998 36.3884Z" fill="#0088FF"/>
<path d="M46.5763 39.6837C46.711 39.6095 46.711 39.3634 46.581 39.1407C46.451 38.9132 46.2375 38.7926 46.1076 38.8714C45.9729 38.9457 45.9729 39.1917 46.1029 39.4145C46.2329 39.6419 46.4464 39.7626 46.5763 39.6837Z" fill="#0088FF"/>
<path d="M50.8974 40.4961C50.772 40.6818 50.8741 40.9742 51.1294 41.1506C51.3893 41.327 51.6957 41.327 51.8257 41.1413C51.9509 40.9603 51.8488 40.6679 51.5889 40.4915C51.3336 40.3105 51.0273 40.3151 50.8974 40.4961Z" fill="#0088FF"/>
<path d="M54.4388 43.2344C54.5734 43.1091 54.5456 42.8539 54.3738 42.6636C54.1974 42.4686 53.9468 42.4129 53.8122 42.5382C53.673 42.6589 53.7008 42.9188 53.8772 43.1091C54.0489 43.304 54.2995 43.3597 54.4388 43.2344Z" fill="#0088FF"/>
<path d="M51.3801 41.8236C51.2641 41.9257 51.2919 42.1345 51.4311 42.2923C51.5704 42.4501 51.7792 42.4919 51.8906 42.3944C52.002 42.2923 51.9788 42.0835 51.8396 41.9257C51.6957 41.7678 51.4915 41.7214 51.3801 41.8236Z" fill="#0088FF"/>
<path d="M50.7443 41.6238C50.8557 41.5217 50.8324 41.3128 50.6886 41.155C50.5493 40.9972 50.3451 40.9508 50.2291 41.0529C50.1177 41.155 50.1409 41.3639 50.2848 41.5217C50.424 41.6795 50.6329 41.7259 50.7443 41.6238Z" fill="#0088FF"/>
<path d="M41.6285 36.3282C41.6285 36.4767 41.8002 36.602 42.0091 36.602C42.2179 36.602 42.3943 36.4767 42.3943 36.3282C42.3943 36.1796 42.2226 36.0543 42.0091 36.0543C41.7956 36.0543 41.6285 36.175 41.6285 36.3282Z" fill="#0088FF"/>
<path d="M41.7863 35.7016C41.9998 35.7016 42.1716 35.581 42.1716 35.4278C42.1716 35.2746 41.9998 35.1539 41.7863 35.1539C41.5728 35.1539 41.4011 35.2793 41.4011 35.4278C41.4011 35.5763 41.5728 35.7016 41.7863 35.7016Z" fill="#0088FF"/>
<path d="M40.4311 35.0981C40.626 34.9635 40.6353 34.6339 40.4451 34.3554C40.2547 34.0816 39.9438 33.9702 39.7488 34.1048C39.5539 34.2394 39.5492 34.5689 39.7349 34.8428C39.9252 35.1213 40.2362 35.2326 40.4311 35.0981Z" fill="#0088FF"/>
<path d="M41.1087 34.4391C41.2618 34.3323 41.2665 34.0724 41.118 33.8542C40.9695 33.6361 40.7235 33.5479 40.5657 33.6546C40.4125 33.7614 40.4079 34.0213 40.5564 34.2395C40.7049 34.4576 40.9508 34.5458 41.1087 34.4391Z" fill="#0088FF"/>
<path d="M53.4408 41.2617C53.5709 41.1689 53.6219 41.0204 53.5569 40.9276C53.4873 40.8347 53.3295 40.8347 53.1995 40.9276C53.0696 41.0204 53.0185 41.1735 53.0881 41.2664C53.1531 41.3592 53.3109 41.3546 53.4408 41.2617Z" fill="#0088FF"/>
<path d="M50.3543 44.6918C46.1631 42.088 41.4799 39.7162 36.5183 37.4698C40.0828 40.0226 50.1314 44.9146 50.3543 44.6918Z" fill="#0088FF"/>
<path d="M30.4243 28.5306C30.1737 28.5306 29.9695 28.7348 29.9695 28.9855C29.9695 29.2361 30.1737 29.4403 30.4243 29.4403C30.6749 29.4403 30.8791 29.2361 30.8791 28.9855C30.8791 28.7348 30.6749 28.5306 30.4243 28.5306Z" fill="#0088FF"/>
<path d="M32.7218 29.1293C32.7218 28.8926 32.5083 28.6976 32.2437 28.6976C31.9791 28.6976 31.7656 28.8926 31.7656 29.1293C31.7656 29.366 31.9791 29.561 32.2437 29.561C32.5083 29.561 32.7218 29.366 32.7218 29.1293Z" fill="#0088FF"/>
<path d="M32.5453 30.6193C32.3365 30.6193 32.1648 30.8142 32.1648 31.0463C32.1648 31.2783 32.3365 31.4733 32.5453 31.4733C32.7542 31.4733 32.9259 31.283 32.9259 31.0463C32.9259 30.8095 32.7542 30.6193 32.5453 30.6193Z" fill="#0088FF"/>
<path d="M30.2944 30.1875C30.1133 30.1875 29.9695 30.3314 29.9695 30.5124C29.9695 30.6934 30.1133 30.8373 30.2944 30.8373C30.4753 30.8373 30.6192 30.6934 30.6192 30.5124C30.6192 30.3314 30.4753 30.1875 30.2944 30.1875Z" fill="#0088FF"/>
<path d="M31.3479 29.5609C31.2272 29.5609 31.1298 29.6769 31.1298 29.8255C31.1298 29.974 31.2272 30.0947 31.3479 30.0947C31.4686 30.0947 31.5707 29.974 31.5707 29.8255C31.5707 29.6769 31.4686 29.5609 31.3479 29.5609Z" fill="#0088FF"/>
<path d="M32.8609 27.8576C33.0634 27.8576 33.2276 27.6935 33.2276 27.4909C33.2276 27.2884 33.0634 27.1243 32.8609 27.1243C32.6584 27.1243 32.4943 27.2884 32.4943 27.4909C32.4943 27.6935 32.6584 27.8576 32.8609 27.8576Z" fill="#0088FF"/>
<path d="M32.8425 28.1454C32.68 28.1454 32.5455 28.2661 32.5455 28.4192C32.5455 28.5724 32.68 28.6884 32.8425 28.6884C33.005 28.6884 33.1395 28.5678 33.1395 28.4192C33.1395 28.2707 33.0096 28.1454 32.8425 28.1454Z" fill="#0088FF"/>
<path d="M31.2597 28.3032C31.2597 28.2196 31.19 28.1454 31.1019 28.1454C31.0137 28.1454 30.9441 28.2196 30.9441 28.3032C30.9441 28.3914 31.0137 28.4656 31.1019 28.4656C31.19 28.4656 31.2597 28.3914 31.2597 28.3032Z" fill="#0088FF"/>
<path d="M31.0184 27.89C30.4336 27.89 29.9416 27.8668 29.8116 27.7414C30.3268 27.4769 30.545 27.1334 30.531 26.7296C30.2757 27.3005 29.8626 27.5511 29.2964 27.4908C28.7023 27.3005 28.6049 26.9431 28.6791 26.5254C28.758 26.2098 29.0272 25.9406 29.4449 25.7039C29.0133 25.7178 28.6606 25.9452 28.4285 26.5115C28.3774 26.6879 28.3914 26.8642 28.4424 27.0453C28.1639 26.9849 27.7787 26.5254 27.3934 26.0706C27.6766 26.6879 28.1036 27.2819 28.9251 27.7925C29.0411 28.4562 29.2314 28.4469 29.4774 27.9921C29.9694 28.1452 30.4846 28.0849 31.0184 27.89Z" fill="#0088FF"/>
<path d="M28.9297 26.2841C28.8601 26.5533 28.9436 26.8828 29.0411 27.0499C29.1525 27.2356 29.5888 27.3098 29.8069 27.2448C29.9926 27.1938 30.1969 26.8457 30.2015 26.6693C30.2015 26.4651 29.9973 26.1262 29.6956 26.0334C29.6909 26.7575 29.431 26.841 28.9297 26.2841Z" fill="#0088FF"/>
</g>
</g>
<defs>
<clipPath id="clip0_1_476">
<rect width="64" height="64" fill="white"/>
</clipPath>
</defs>
</svg>
